<?xml version="1.0" standalone="no"?>
<!DOCTYPE svg PUBLIC "-//W3C//DTD SVG 20010904//EN"
 "http://www.w3.org/TR/2001/REC-SVG-20010904/DTD/svg10.dtd">
<svg version="1.0" xmlns="http://www.w3.org/2000/svg"
 width="1024.000000pt" height="1024.000000pt" viewBox="0 0 1024.000000 1024.000000"
 preserveAspectRatio="xMidYMid meet">
<metadata>
Created by potrace 1.11, written by Peter Selinger 2001-2013
</metadata>
<g transform="translate(0.000000,1024.000000) scale(0.100000,-0.100000)"
fill="#000000" stroke="none">
<path d="M920 10220 c0 -13 7 -20 20 -20 13 0 20 -7 20 -20 0 -13 7 -20 20
-20 13 0 20 -7 20 -20 0 -13 7 -20 20 -20 13 0 20 -7 20 -20 0 -13 7 -20 20
-20 13 0 20 -7 20 -20 0 -13 7 -20 20 -20 13 0 20 -7 20 -20 0 -13 7 -20 20
-20 13 0 20 -7 20 -20 0 -13 7 -20 20 -20 13 0 20 -7 20 -20 0 -13 7 -20 20
-20 13 0 20 -7 20 -20 0 -13 7 -20 19 -20 13 0 21 -8 23 -22 2 -13 10 -23 18
-23 8 0 16 -4 16 -10 5 -31 17 -56 24 -45 5 8 12 1 21 -18 7 -17 21 -33 31
-35 10 -3 18 -14 18 -27 0 -11 4 -19 9 -16 9 6 26 -10 33 -29 1 -5 6 -9 11 -7
4 1 12 -9 17 -23 5 -14 16 -25 25 -25 8 0 15 -7 15 -16 0 -9 9 -18 20 -21 11
-3 20 -14 20 -24 0 -12 7 -19 20 -19 13 0 20 -7 20 -20 0 -13 7 -20 20 -20 13
0 20 -7 20 -20 0 -13 7 -20 20 -20 13 0 20 -7 20 -20 0 -13 7 -20 20 -20 13 0
20 -7 20 -20 0 -13 7 -20 20 -20 13 0 20 -7 20 -20 0 -13 7 -20 20 -20 13 0
20 -7 20 -20 0 -13 7 -20 20 -20 13 0 20 -7 20 -20 0 -13 7 -20 19 -20 13 0
21 -8 23 -22 2 -16 9 -22 21 -20 11 2 17 -4 17 -16 0 -12 9 -22 21 -25 12 -3
18 -10 15 -15 -6 -10 12 -30 29 -31 6 -1 11 -4 11 -8 6 -31 18 -53 30 -53 13
0 15 -6 13 -26 0 -4 10 -12 23 -18 13 -6 23 -18 23 -26 1 -8 6 -14 13 -12 7 1
17 -9 22 -23 5 -14 16 -25 24 -25 7 0 16 -9 19 -20 3 -11 12 -20 21 -20 9 0
16 -8 16 -20 0 -13 7 -20 20 -20 13 0 20 -7 20 -20 0 -13 7 -20 20 -20 13 0
20 -7 20 -20 0 -13 7 -20 20 -20 13 0 20 -7 20 -20 0 -13 7 -20 20 -20 13 0
20 -7 20 -20 0 -13 7 -20 20 -20 13 0 20 -7 20 -20 0 -13 7 -20 20 -20 13 0
20 -7 20 -20 0 -13 7 -20 20 -20 13 0 20 -7 20 -20 0 -13 7 -20 20 -20 13 0
20 -7 20 -20 0 -11 7 -20 15 -20 9 0 20 -11 25 -25 5 -14 15 -24 22 -23 7 2
12 -2 13 -9 0 -15 14 -28 28 -28 7 0 12 -4 13 -10 2 -21 19 -51 39 -67 11 -10
16 -18 10 -18 -5 0 1 -6 15 -13 14 -7 25 -19 25 -27 1 -8 6 -14 13 -12 7 1 17
-9 22 -23 5 -14 16 -25 24 -25 7 0 16 -9 19 -20 3 -11 12 -20 21 -20 9 0 16
-8 16 -20 0 -13 7 -20 20 -20 13 0 20 -7 20 -20 0 -13 7 -20 20 -20 13 0 20
-7 20 -20 0 -13 7 -20 20 -20 13 0 20 -7 20 -20 0 -13 7 -20 20 -20 13 0 20
-7 20 -20 0 -13 7 -20 20 -20 13 0 20 -7 20 -20 0 -13 7 -20 20 -20 13 0 20
-7 20 -20 0 -13 7 -20 20 -20 13 0 20 -7 20 -20 0 -13 7 -20 20 -20 13 0 20
-7 20 -20 0 -13 7 -20 19 -20 13 0 21 -8 23 -22 2 -13 10 -23 18 -23 8 0 15
-5 15 -12 0 -6 4 -15 8 -20 5 -4 14 -8 20 -8 7 0 13 -4 13 -10 4 -31 18 -54
35 -58 11 -3 19 -14 19 -27 0 -11 5 -18 10 -15 6 3 15 -6 20 -20 5 -14 14 -23
20 -20 6 3 14 -5 20 -19 5 -14 16 -26 24 -26 7 0 16 -9 19 -20 3 -11 12 -20
21 -20 9 0 16 -8 16 -20 0 -13 7 -20 20 -20 13 0 20 -7 20 -20 0 -13 7 -20 20
-20 13 0 20 -7 20 -20 0 -13 7 -20 20 -20 13 0 20 -7 20 -20 0 -13 7 -20 20
-20 13 0 20 -7 20 -20 0 -13 7 -20 20 -20 13 0 20 -7 20 -20 0 -13 7 -20 20
-20 13 0 20 -7 20 -20 0 -13 7 -20 20 -20 11 0 20 -4 20 -10 0 -5 11 -10 25
-10 15 0 24 5 22 13 -1 8 20 13 75 15 63 2 76 6 71 17 -4 12 5 15 41 15 34 0
46 4 46 15 0 8 7 15 15 15 8 0 15 6 15 14 0 7 9 16 21 19 12 3 18 10 14 16 -3
7 2 11 14 11 12 0 21 7 21 15 0 8 7 15 15 15 8 0 15 7 15 15 0 8 9 16 20 16
36 3 40 4 39 14 -1 17 41 23 166 25 72 1 112 5 100 9 -16 7 -12 10 25 19 25 5
35 10 23 11 -18 1 -23 7 -23 26 0 18 -5 25 -20 25 -13 0 -20 7 -20 20 0 13 -7
20 -20 20 -13 0 -20 7 -20 20 0 13 -7 20 -19 20 -14 0 -21 10 -25 35 -4 21
-13 35 -21 35 -14 0 -20 12 -16 33 1 5 -8 11 -19 14 -11 3 -20 14 -20 24 0 12
-7 19 -20 19 -13 0 -20 7 -20 20 0 13 -7 20 -19 20 -13 0 -21 8 -23 23 -2 12
-9 22 -17 22 -8 0 -16 8 -18 18 -1 9 -5 25 -6 35 -2 9 -10 17 -18 17 -8 0 -15
10 -17 23 -2 14 -10 22 -23 22 -12 0 -19 7 -19 20 0 13 -7 20 -20 20 -13 0
-20 7 -20 20 0 13 -7 20 -19 20 -14 0 -20 10 -25 40 -4 23 -11 39 -18 37 -7
-1 -14 8 -16 21 -2 14 -10 22 -23 22 -12 0 -19 7 -19 20 0 13 -7 20 -20 20
-13 0 -20 7 -20 20 0 13 -7 20 -19 20 -14 0 -21 10 -25 35 -4 21 -13 35 -21
35 -9 0 -15 10 -15 25 0 18 -5 25 -20 25 -13 0 -20 7 -20 20 0 13 -7 20 -20
20 -13 0 -20 7 -20 20 0 13 -7 20 -19 20 -14 0 -21 10 -25 35 -4 21 -13 35
-21 35 -8 0 -16 5 -16 10 -1 6 -2 16 -3 23 0 6 -8 12 -16 12 -8 0 -16 10 -18
23 -2 14 -10 22 -23 22 -12 0 -19 7 -19 20 0 13 -7 20 -19 20 -13 0 -21 8 -23
23 -2 12 -10 22 -18 22 -8 0 -15 5 -16 10 -2 30 -17 64 -27 62 -6 -1 -13 8
-15 21 -2 14 -10 22 -23 22 -12 0 -19 7 -19 20 0 13 -7 20 -20 20 -13 0 -20 7
-20 20 0 13 -7 20 -20 20 -14 0 -20 7 -22 23 0 12 -1 29 -2 37 -1 8 -8 15 -16
15 -8 0 -16 10 -18 23 -2 14 -10 22 -23 22 -12 0 -19 7 -19 20 0 13 -7 20 -20
20 -13 0 -20 7 -20 20 0 13 -7 20 -19 20 -14 0 -21 10 -25 35 -4 21 -13 35
-21 35 -14 0 -20 12 -16 33 1 5 -8 11 -19 14 -11 3 -20 14 -20 24 0 12 -7 19
-20 19 -13 0 -20 7 -20 20 0 13 -7 20 -19 20 -13 0 -21 8 -23 23 -2 12 -9 22
-17 22 -8 0 -16 8 -18 18 -1 9 -5 25 -6 35 -2 9 -10 17 -18 17 -8 0 -15 10
-17 23 -2 14 -10 22 -23 22 -12 0 -19 7 -19 20 0 13 -7 20 -20 20 -13 0 -20 7
-20 20 0 13 -7 20 -20 20 -14 0 -20 7 -21 25 -2 44 -5 50 -17 47 -7 -1 -17 9
-22 23 -5 14 -16 25 -25 25 -8 0 -15 9 -15 20 0 13 -7 20 -20 20 -13 0 -20 7
-20 20 0 13 -7 20 -19 20 -15 0 -21 10 -26 40 -4 22 -11 38 -16 34 -5 -3 -13
6 -19 20 -5 14 -16 26 -25 26 -8 0 -15 9 -15 20 0 13 -7 20 -20 20 -13 0 -20
7 -20 20 0 13 -7 20 -19 20 -14 0 -21 10 -25 35 -4 21 -13 35 -21 35 -9 0 -15
9 -15 21 0 12 -8 23 -20 26 -11 3 -20 14 -20 24 0 12 -7 19 -20 19 -13 0 -20
7 -20 20 0 13 -7 20 -19 20 -13 0 -21 8 -23 23 -2 12 -9 21 -17 19 -7 -1 -15
7 -18 18 -5 20 -10 20 -704 20 -692 0 -699 0 -699 -20z"/>
<path d="M3280 10220 c0 -13 7 -20 19 -20 14 0 21 -10 25 -35 4 -21 13 -35 21
-35 9 0 15 -10 15 -25 0 -18 5 -25 20 -25 13 0 20 -7 20 -20 0 -13 7 -20 20
-20 14 0 20 -7 21 -25 3 -46 4 -50 19 -50 8 0 16 -10 18 -22 2 -14 10 -23 22
-23 12 0 20 -10 24 -35 4 -21 13 -35 21 -35 9 0 15 -10 15 -25 0 -18 5 -25 20
-25 13 0 20 -7 20 -20 0 -13 7 -20 20 -20 16 0 20 -7 20 -36 0 -27 5 -37 20
-41 11 -3 20 -14 20 -24 0 -12 7 -19 19 -19 13 0 21 -8 23 -22 2 -13 9 -22 16
-21 7 2 14 -14 18 -37 5 -30 11 -40 25 -40 12 0 19 -7 19 -20 0 -13 7 -20 20
-20 15 0 20 -7 20 -25 0 -14 0 -28 1 -32 0 -5 9 -11 20 -15 10 -4 19 -17 19
-28 0 -13 7 -20 20 -20 13 0 20 -7 20 -19 0 -10 9 -21 20 -24 15 -4 20 -14 20
-37 0 -23 5 -33 20 -37 11 -3 20 -14 20 -24 0 -12 7 -19 19 -19 14 0 21 -10
25 -35 4 -21 13 -35 21 -35 9 0 15 -10 15 -25 0 -18 5 -25 20 -25 13 0 20 -7
20 -20 0 -13 7 -20 20 -20 15 0 20 -7 21 -27 1 -16 1 -32 0 -36 -1 -5 8 -11
19 -14 11 -3 20 -14 20 -24 0 -12 7 -19 19 -19 14 0 21 -10 26 -37 6 -32 9
-35 15 -18 7 16 9 12 15 -22 6 -33 12 -43 26 -43 12 0 19 -7 19 -20 0 -13 7
-20 20 -20 14 0 20 -7 21 -25 3 -46 4 -50 19 -50 8 0 16 -10 18 -22 2 -15 10
-23 22 -23 12 0 20 -8 22 -22 2 -13 10 -23 18 -23 15 0 16 -4 19 -46 0 -12 10
-23 21 -26 11 -3 20 -14 20 -24 0 -12 7 -19 20 -19 18 0 24 -16 19 -57 0 -4 9
-10 20 -15 12 -4 21 -16 21 -28 0 -13 7 -20 20 -20 13 0 20 -7 20 -20 0 -13 7
-20 20 -20 16 0 20 -7 20 -36 0 -27 5 -37 20 -41 11 -3 20 -14 20 -24 0 -12 7
-19 19 -19 14 0 21 -10 25 -35 4 -21 13 -35 21 -35 9 0 15 -10 15 -25 0 -18 5
-25 20 -25 13 0 20 -7 20 -20 0 -13 7 -20 20 -20 14 0 20 -7 21 -25 2 -44 5
-50 18 -47 7 1 15 -7 18 -18 6 -24 53 -29 53 -5 0 11 12 15 48 16 26 0 41 3
35 6 -31 12 -8 23 47 23 55 0 78 11 48 23 -7 3 6 6 30 6 29 1 42 5 42 15 0 8
14 18 31 21 22 5 28 10 18 15 -9 6 -5 11 14 15 17 5 29 16 33 31 3 13 10 24
14 24 5 0 12 14 15 31 5 21 10 27 15 19 5 -8 10 -2 15 19 3 17 10 31 15 31 5
0 11 14 15 30 4 17 13 30 21 30 10 0 14 13 14 46 0 37 -4 47 -19 51 -12 3 -21
17 -26 39 -3 20 -12 34 -20 34 -9 0 -15 10 -15 25 0 18 -5 25 -20 25 -15 0
-20 7 -21 28 -1 15 -1 31 0 35 1 5 -7 11 -18 14 -11 3 -21 15 -23 27 -2 11
-10 21 -18 21 -15 0 -16 4 -19 50 -1 18 -7 25 -20 25 -15 0 -21 10 -26 40 -4
22 -12 38 -18 37 -6 -1 -13 8 -15 21 -2 14 -10 22 -23 22 -16 0 -19 7 -19 40
0 33 -4 40 -19 40 -14 0 -21 10 -25 35 -4 21 -13 35 -21 35 -9 0 -15 10 -15
25 0 18 -5 25 -20 25 -16 0 -20 7 -20 36 0 27 -5 37 -20 41 -11 3 -20 14 -20
24 0 11 -9 23 -19 27 -11 4 -20 10 -20 15 -1 4 -1 18 -1 32 0 18 -5 25 -20 25
-14 0 -20 7 -21 25 -3 46 -4 50 -19 50 -8 0 -16 10 -18 23 -2 14 -10 22 -23
22 -16 0 -19 7 -19 40 0 33 -3 40 -20 40 -14 0 -20 7 -21 25 -3 46 -4 50 -19
50 -8 0 -16 10 -18 23 -2 14 -10 22 -23 22 -15 0 -19 7 -19 36 0 27 -5 37 -19
41 -12 3 -21 17 -26 39 -3 20 -12 34 -20 34 -9 0 -15 10 -15 25 0 18 -5 25
-20 25 -15 0 -20 7 -21 28 -1 15 -1 31 0 35 1 5 -7 11 -18 14 -11 3 -21 15
-23 27 -2 11 -10 21 -18 21 -10 0 -16 12 -18 38 -2 28 -8 37 -22 37 -14 0 -20
10 -25 40 -4 22 -12 38 -18 37 -6 -1 -13 8 -15 21 -2 14 -10 22 -23 22 -15 0
-19 7 -19 36 0 27 -5 37 -19 41 -14 3 -22 18 -27 46 -5 34 -8 38 -15 22 -6
-17 -8 -17 -8 -2 -1 16 -32 17 -506 17 -498 0 -505 0 -505 -20z"/>
<path d="M5120 10204 c0 -27 5 -37 19 -41 13 -3 21 -17 25 -44 3 -21 11 -38
17 -36 6 1 17 -16 23 -38 8 -25 14 -34 18 -25 3 9 8 1 13 -22 4 -24 14 -38 26
-41 11 -3 19 -9 18 -14 -1 -4 -1 -20 0 -35 1 -21 6 -28 21 -28 17 0 20 -7 20
-40 0 -33 3 -40 20 -40 17 0 20 -7 20 -40 0 -33 3 -40 20 -40 16 0 20 -7 20
-36 0 -27 5 -37 20 -41 15 -4 20 -14 20 -40 0 -26 5 -36 20 -40 11 -3 20 -14
20 -24 0 -11 7 -22 16 -26 13 -5 13 -7 2 -14 -10 -7 -9 -9 4 -9 11 0 18 -10
20 -27 2 -17 9 -28 18 -28 15 0 16 -4 19 -50 1 -18 7 -25 21 -25 17 0 20 -7
20 -40 0 -33 3 -40 20 -40 17 0 20 -7 20 -40 0 -33 3 -40 20 -40 17 0 20 -7
20 -40 0 -33 3 -40 20 -40 15 0 20 -7 21 -27 1 -16 1 -32 0 -36 -1 -5 7 -11
18 -14 12 -3 21 -17 25 -38 4 -18 13 -36 21 -39 8 -3 15 -15 15 -26 0 -12 9
-24 21 -28 11 -5 20 -11 20 -15 -4 -38 1 -55 19 -60 15 -4 20 -14 20 -41 0
-29 4 -36 20 -36 17 0 20 -7 20 -40 0 -33 3 -40 20 -40 17 0 20 -7 20 -40 0
-33 3 -40 19 -40 16 0 20 -8 23 -37 2 -25 7 -37 16 -35 8 1 16 -7 19 -18 6
-21 25 -29 21 -8 -2 7 11 15 30 18 18 3 31 10 30 15 -2 6 12 11 30 13 20 2 32
9 32 18 0 10 13 14 50 14 40 0 48 3 44 15 -5 13 13 15 125 15 110 0 131 -2
131 -15 0 -13 24 -15 154 -15 l155 0 -3 28 c-2 15 -10 28 -20 30 -11 2 -16 14
-16 39 0 26 -5 36 -20 40 -16 4 -20 14 -20 44 0 31 -4 39 -19 39 -15 0 -19 10
-23 50 -3 30 -12 56 -21 63 -9 7 -18 27 -19 46 -2 23 -8 36 -20 39 -13 3 -18
14 -18 39 0 26 -5 36 -20 40 -16 4 -20 14 -20 43 0 29 -4 39 -20 43 -15 4 -20
14 -21 39 0 32 -17 86 -18 61 -1 -7 -6 -13 -11 -13 -6 0 -9 3 -8 8 1 4 -1 28
-6 55 -5 31 -12 47 -22 47 -9 0 -14 11 -14 36 0 27 -5 37 -20 41 -16 4 -20 14
-20 44 0 32 -4 39 -19 39 -16 0 -20 8 -23 43 -2 29 -8 42 -18 42 -8 0 -15 5
-15 10 -3 47 -18 104 -28 102 -7 -1 -13 14 -15 41 -3 34 -7 42 -23 42 -16 0
-19 7 -19 40 0 33 -3 40 -19 40 -16 0 -20 8 -23 43 -2 29 -8 42 -18 42 -8 0
-15 5 -15 10 -3 42 -18 104 -25 100 -12 -7 -19 7 -22 45 -2 22 -9 35 -20 38
-13 3 -18 14 -18 43 l0 39 -500 0 -500 0 0 -36z"/>
<path d="M6800 10220 c0 -13 7 -20 20 -20 17 0 20 -7 21 -45 2 -67 3 -70 19
-70 11 0 17 -15 21 -53 7 -52 19 -83 19 -47 0 10 3 15 8 11 8 -9 9 -13 11 -71
1 -38 4 -45 21 -45 17 0 20 -7 21 -45 2 -67 3 -70 19 -70 10 0 17 -14 20 -45
3 -31 10 -45 20 -45 16 0 17 -3 19 -70 1 -38 4 -45 21 -45 16 0 20 -7 21 -37
1 -49 11 -84 24 -83 6 0 11 -18 13 -40 3 -32 7 -40 23 -40 16 0 19 -7 19 -56
0 -47 3 -57 20 -61 15 -4 20 -14 21 -42 0 -38 16 -89 19 -61 3 28 19 -23 19
-62 1 -31 5 -38 21 -38 17 0 20 -7 21 -47 1 -27 1 -52 0 -56 -1 -5 7 -11 18
-14 15 -4 21 -15 23 -47 2 -22 7 -40 13 -38 13 5 23 -26 24 -75 1 -36 4 -43
21 -43 17 0 20 -7 21 -42 1 -49 10 -80 24 -79 6 1 11 -17 13 -39 2 -31 7 -40
21 -40 19 0 30 -32 32 -89 0 -23 1 -24 9 -6 7 19 8 18 14 -5 3 -14 7 -38 9
-55 3 -24 9 -31 30 -33 15 -2 27 -10 27 -18 0 -9 11 -14 36 -14 28 0 35 -3 30
-15 -5 -13 12 -15 117 -14 67 0 116 3 110 6 -31 12 -8 23 47 23 55 0 78 -11
48 -23 -7 -3 6 -6 30 -6 28 -1 45 -6 48 -16 4 -8 17 -15 30 -15 15 0 24 -6 24
-15 0 -8 7 -15 15 -15 9 0 18 -7 21 -15 4 -8 12 -15 20 -15 8 0 14 -9 14 -20
0 -11 4 -20 9 -20 17 0 23 21 16 57 -4 25 -9 32 -15 23 -11 -18 -19 10 -21 79
-2 42 -7 55 -21 59 -15 3 -18 15 -18 63 0 52 -2 59 -20 59 -18 0 -20 7 -21 58
-1 67 -10 104 -24 100 -5 -2 -11 4 -12 12 -1 8 -5 36 -8 63 -4 30 -11 47 -20
47 -10 0 -15 17 -17 63 -2 47 -7 62 -18 62 -10 0 -16 12 -18 35 -6 87 -14 120
-28 120 -10 0 -14 14 -14 56 0 47 -3 57 -20 61 -16 4 -20 15 -22 67 -2 45 -7
61 -17 61 -9 0 -16 13 -18 35 -8 89 -15 119 -26 117 -8 -1 -13 18 -15 57 -3
48 -7 59 -23 63 -15 4 -19 14 -19 53 0 26 -3 63 -7 81 -7 33 -7 33 -13 9 -7
-23 -7 -23 -13 10 -3 19 -9 56 -12 83 -4 31 -11 47 -20 47 -10 0 -15 17 -17
63 -2 47 -7 62 -18 62 -10 0 -16 12 -18 35 -5 82 -14 120 -25 117 -7 -1 -13
11 -15 28 -1 17 -5 45 -8 63 l-5 32 -394 0 c-388 0 -395 0 -395 -20z"/>
<path d="M8242 10198 c2 -24 7 -42 13 -40 14 5 24 -27 24 -84 1 -65 11 -115
22 -109 13 9 18 -9 20 -84 2 -62 5 -74 21 -79 16 -4 18 -15 18 -83 0 -72 2
-79 20 -79 18 0 20 -7 21 -77 0 -43 4 -87 9 -98 l9 -20 1 20 1 20 9 -20 c5
-11 9 -49 10 -85 1 -69 10 -102 25 -101 6 1 11 -16 13 -36 5 -83 13 -123 25
-120 8 1 13 -23 15 -79 2 -71 5 -83 22 -87 16 -4 20 -16 22 -83 2 -62 6 -79
18 -79 11 0 16 -15 18 -60 1 -33 5 -76 8 -95 5 -29 8 -32 14 -15 6 16 8 14 13
-15 4 -19 7 -64 8 -99 2 -52 6 -65 21 -69 15 -4 18 -15 18 -83 0 -72 2 -79 20
-79 17 0 19 -8 22 -82 2 -48 7 -82 13 -80 14 5 24 -27 24 -88 1 -30 4 -66 8
-79 6 -23 7 -23 13 -5 9 22 18 -32 22 -126 2 -41 7 -55 18 -55 12 0 16 -17 18
-79 2 -68 5 -79 22 -83 17 -5 20 -14 20 -68 0 -63 0 -63 31 -70 22 -5 28 -10
18 -15 -9 -6 -6 -10 13 -15 20 -5 29 -16 34 -38 6 -27 8 -29 14 -13 6 18 7 18
13 -5 4 -13 7 -40 7 -59 0 -26 3 -31 10 -20 7 10 10 -6 9 -55 0 -46 -3 -63 -8
-50 -12 29 -23 -88 -19 -195 2 -57 7 -84 14 -83 15 3 23 -42 25 -145 1 -45 6
-85 10 -88 5 -3 9 5 10 18 0 22 1 22 9 3 5 -11 9 -51 9 -89 1 -54 4 -67 15
-63 16 7 26 -32 26 -104 0 -42 3 -49 20 -49 18 0 20 -7 20 -76 0 -67 2 -76 20
-81 18 -5 20 -14 20 -83 0 -67 3 -78 18 -82 16 -5 19 -17 21 -79 2 -76 6 -93
21 -84 11 7 19 -38 22 -125 2 -41 7 -65 15 -65 20 0 21 -8 24 -103 2 -51 6
-95 11 -98 4 -3 8 5 9 18 1 23 1 23 9 -2 12 -37 12 -210 0 -210 -5 0 -10 5
-10 11 0 6 -14 24 -31 41 l-30 31 5 -29 c2 -16 5 -42 6 -59 1 -25 3 -27 9 -11
7 18 8 18 14 -5 4 -13 7 -36 7 -51 0 -17 5 -27 12 -25 12 2 14 -4 17 -43 0
-11 8 -20 16 -20 11 0 15 -12 16 -47 0 -33 3 -42 8 -29 7 18 8 18 14 -5 4 -13
7 -35 8 -49 0 -22 1 -23 8 -6 7 18 8 18 14 -5 4 -13 7 -36 7 -51 0 -20 4 -26
15 -22 12 5 15 -2 15 -30 0 -25 4 -36 15 -36 10 0 15 -10 15 -30 0 -19 5 -30
14 -30 9 0 16 -12 18 -32 2 -18 8 -32 14 -31 6 1 14 -16 17 -39 3 -22 10 -44
15 -47 6 -3 14 -19 17 -34 4 -15 11 -27 15 -27 5 0 12 -15 15 -32 4 -18 12
-36 16 -39 5 -3 13 -25 18 -50 5 -24 10 -35 11 -24 l1 20 9 -20 c5 -11 9 -35
9 -53 1 -18 5 -31 10 -28 10 7 21 -27 21 -66 0 -17 5 -27 13 -25 8 1 13 -14
15 -45 2 -34 7 -48 18 -48 11 0 14 -15 15 -62 0 -40 3 -56 8 -44 7 18 8 18 14
-5 4 -13 7 -43 7 -66 0 -29 4 -42 13 -40 8 1 13 -20 15 -76 2 -47 7 -75 12
-72 14 9 19 -10 22 -90 2 -49 7 -69 16 -67 9 1 12 -20 12 -77 0 -108 11 -206
21 -189 5 7 9 -112 9 -264 0 -208 -3 -277 -12 -280 -8 -3 -14 -39 -16 -111 -3
-81 -8 -107 -18 -107 -9 0 -14 -18 -16 -63 -2 -43 -7 -61 -15 -59 -9 1 -13
-13 -13 -47 0 -28 -6 -55 -14 -63 -7 -8 -16 -39 -20 -71 -4 -31 -11 -57 -16
-57 -4 0 -11 -18 -15 -40 -4 -22 -11 -38 -15 -35 -5 3 -12 -15 -15 -40 -5 -28
-12 -45 -21 -45 -12 0 -19 -26 -15 -52 0 -5 -6 -8 -14 -8 -7 0 -19 -8 -24 -17
-6 -10 -11 -13 -11 -6 0 6 -21 15 -47 19 -46 8 -46 8 -18 15 30 7 30 7 -7 8
-20 0 -43 8 -52 16 -8 8 -22 15 -30 15 -9 0 -24 9 -33 20 -12 14 -30 20 -58
21 -30 0 -35 2 -20 8 16 7 14 9 -17 15 -20 4 -38 11 -40 17 -2 5 -21 12 -43
15 -22 4 -45 13 -52 21 -6 8 -13 14 -15 13 -10 -4 -37 13 -32 21 5 9 -14 13
-53 9 -15 -1 -23 4 -23 15 0 9 -4 14 -8 11 -15 -9 -82 17 -82 31 0 8 -4 12 -9
9 -5 -4 -17 -3 -26 0 -13 5 -14 8 -3 15 13 9 13 9 -54 13 -15 1 -38 14 -52 29
-16 18 -36 27 -62 29 -26 2 -38 8 -42 20 -3 13 -10 17 -23 13 -11 -4 -19 -2
-19 5 0 7 -8 9 -19 5 -12 -3 -21 0 -25 10 -3 9 -18 15 -37 15 -24 0 -30 4 -25
15 4 11 -1 15 -18 15 -14 0 -26 5 -28 11 -3 10 -25 17 -60 18 -10 1 -18 8 -18
16 0 8 -8 15 -18 15 -10 0 -28 7 -40 16 -17 12 -22 12 -22 2 0 -8 -5 -6 -11 4
-5 10 -17 18 -25 18 -9 0 -12 5 -8 11 4 8 0 9 -15 4 -13 -4 -21 -2 -21 5 0 5
-10 9 -22 7 -13 -2 -34 -1 -48 4 -17 5 -19 7 -7 8 10 1 15 6 12 11 -3 6 -17 7
-30 4 -15 -4 -26 0 -32 11 -5 9 -19 17 -31 18 -12 1 -22 8 -22 15 0 8 -6 12
-15 8 -8 -3 -15 -1 -15 4 0 6 -7 10 -15 10 -8 0 -15 4 -15 9 0 4 -21 11 -47
14 -27 3 -50 11 -55 21 -5 9 -16 16 -23 16 -8 0 -15 4 -15 10 0 5 -11 12 -25
16 -14 3 -25 10 -25 15 0 5 -7 9 -15 9 -8 0 -15 -4 -15 -10 0 -21 -28 -9 -34
14 -5 19 -11 23 -27 19 -13 -4 -27 0 -33 8 -6 8 -22 15 -36 17 -14 1 -26 7
-28 12 -2 6 -16 10 -30 10 -18 0 -23 3 -14 9 9 5 -1 12 -32 21 -25 7 -46 17
-46 21 0 5 -11 9 -25 9 -13 0 -28 7 -32 15 -5 8 -21 16 -36 17 -15 1 -27 8
-27 15 0 8 -13 13 -35 13 -23 0 -35 5 -35 14 0 14 -29 26 -67 26 -14 0 -23 6
-23 15 0 8 -7 15 -15 15 -8 0 -15 5 -15 10 0 6 -7 10 -15 10 -13 0 -15 23 -15
144 0 119 3 145 15 150 11 4 15 21 15 60 0 39 4 55 15 60 10 3 15 19 15 46 0
24 7 48 15 56 8 9 15 31 15 50 0 24 5 34 15 34 9 0 15 9 15 24 0 33 10 57 21
50 5 -3 9 6 9 20 0 14 6 29 14 33 15 8 16 10 16 43 0 11 7 20 15 20 9 0 15 9
15 25 0 14 6 28 14 31 8 3 18 19 21 35 4 16 11 27 16 23 5 -3 9 4 9 15 0 12 6
21 14 21 7 0 16 9 19 21 3 12 10 18 15 15 6 -3 13 6 16 19 4 14 10 24 14 22 4
-2 21 11 39 30 18 18 27 33 20 34 -7 0 1 5 17 11 19 7 24 13 16 18 -8 5 -1 10
20 15 23 5 29 10 19 15 -9 6 -5 11 14 15 15 4 27 13 27 21 0 8 7 14 15 14 8 0
15 7 15 15 0 8 6 15 14 15 8 0 16 7 20 15 3 8 13 15 21 15 9 0 13 5 10 11 -4
6 2 13 14 16 12 3 21 12 21 19 0 8 7 14 15 14 8 0 15 7 15 15 0 8 7 15 15 15
8 0 15 8 15 18 0 13 2 14 9 4 7 -11 9 -11 14 2 4 9 14 16 22 16 9 0 13 5 10
11 -4 6 2 13 14 16 12 3 21 12 21 19 0 8 7 14 15 14 8 0 15 7 15 15 0 8 7 15
15 15 8 0 15 7 15 15 0 8 6 15 14 15 8 0 17 12 21 27 4 19 9 23 14 14 6 -9 10
-4 15 15 4 15 18 38 31 50 13 12 27 35 31 50 6 25 8 26 14 9 6 -17 8 -15 14
12 4 18 12 33 17 33 5 0 9 7 9 15 0 9 7 18 16 22 13 5 13 7 2 14 -10 7 -9 9 5
9 10 0 17 8 17 20 0 11 7 20 15 20 10 0 15 10 15 30 0 17 5 30 13 30 9 0 9 2
-1 9 -11 7 -11 9 2 14 10 4 16 19 16 41 0 27 3 34 15 30 13 -5 15 6 15 69 0
71 13 109 23 70 3 -10 5 45 6 122 0 80 -3 134 -8 127 -13 -21 -21 10 -21 79 0
48 -3 57 -15 53 -12 -5 -15 2 -15 30 0 25 -4 36 -15 36 -10 0 -15 10 -15 30 0
31 -9 35 -45 20 -16 -7 -16 -9 -4 -9 14 -1 18 -15 21 -81 2 -51 8 -84 16 -89
9 -6 12 -52 10 -192 -2 -142 -5 -174 -12 -139 -6 31 -11 39 -16 26 -3 -9 -10
-17 -15 -17 -10 1 -12 5 -14 46 -1 18 -7 25 -20 25 -16 0 -20 8 -23 43 -2 33
-7 41 -20 39 -13 -2 -17 7 -20 40 -2 35 -6 42 -20 40 -14 -2 -18 4 -18 30 0
48 -10 78 -26 78 -12 0 -21 42 -15 73 1 5 -8 11 -19 14 -16 4 -20 14 -20 44 0
32 -3 39 -20 39 -17 0 -20 7 -20 40 0 33 -3 40 -20 40 -16 0 -20 7 -21 38 0
38 -17 91 -19 62 -2 -29 -19 14 -22 55 -2 27 -8 39 -20 43 -16 4 -24 34 -19
65 1 5 -8 11 -19 14 -16 4 -20 14 -20 44 0 32 -4 39 -19 39 -16 0 -20 8 -23
43 -2 29 -8 42 -18 42 -8 0 -15 5 -15 10 -3 47 -18 104 -28 102 -7 -1 -13 14
-15 41 -3 34 -7 42 -23 42 -12 0 -19 7 -19 18 0 25 -7 31 -33 24 -20 -5 -20
-6 -1 -13 15 -6 13 -8 -11 -8 -16 -1 -41 -4 -54 -8 -23 -6 -23 -7 -5 -14 17
-7 16 -8 -6 -8 -37 -2 -70 -12 -65 -21 3 -4 -11 -11 -30 -14 -19 -4 -35 -11
-35 -16 0 -4 -13 -11 -29 -15 -16 -3 -32 -13 -35 -21 -3 -8 -17 -14 -31 -14
-16 0 -25 -6 -25 -15 0 -8 -9 -15 -20 -15 -11 0 -20 -7 -20 -15 0 -13 -18 -20
-42 -16 -13 2 -9 -17 5 -22 6 -3 -3 -6 -20 -6 -22 -1 -33 -6 -33 -16 0 -8 -8
-15 -17 -16 -15 0 -15 -2 2 -8 20 -8 22 -11 24 -56 1 -18 7 -25 21 -25 17 0
20 -7 20 -40 0 -33 3 -40 20 -40 17 0 20 -7 20 -40 0 -33 3 -40 20 -40 15 0
20 -7 20 -27 l0 -28 -172 0 -173 0 -6 -43 c-3 -23 -3 -44 -1 -47 3 -3 88 -5
188 -5 113 0 185 -4 189 -10 4 -6 11 -8 16 -5 5 4 9 1 9 -4 0 -6 10 -11 21
-11 21 0 22 -3 15 -77 -4 -43 -12 -80 -17 -84 -5 -3 -12 -23 -16 -45 -3 -21
-10 -42 -15 -45 -5 -3 -12 -25 -15 -48 -4 -25 -11 -41 -19 -41 -9 0 -14 -11
-14 -30 0 -20 -5 -30 -15 -30 -10 0 -15 -11 -15 -35 0 -24 -5 -35 -15 -35 -8
0 -14 -3 -14 -7 4 -25 -3 -54 -16 -67 -8 -8 -16 -27 -17 -42 -2 -14 -8 -28
-15 -31 -6 -3 -15 -18 -18 -34 -4 -16 -11 -29 -16 -29 -5 0 -9 -9 -9 -19 0
-11 -7 -26 -15 -34 -7 -8 -17 -26 -21 -41 -3 -14 -10 -26 -15 -26 -4 0 -11
-16 -15 -35 -3 -19 -11 -33 -16 -32 -6 1 -12 -9 -14 -23 -3 -13 -11 -28 -19
-33 -8 -4 -15 -13 -15 -18 0 -6 -7 -17 -15 -25 -8 -9 -15 -24 -15 -35 0 -10
-7 -19 -15 -19 -8 0 -15 -9 -15 -20 0 -11 -4 -20 -10 -20 -5 0 -12 -11 -16
-25 -3 -14 -12 -25 -20 -25 -8 0 -14 -9 -14 -20 0 -11 -7 -20 -15 -20 -8 0
-16 -7 -16 -15 -3 -35 -5 -40 -17 -38 -7 2 -12 -4 -12 -12 0 -9 -6 -18 -14
-21 -8 -3 -17 -17 -21 -32 -5 -19 -9 -22 -15 -13 -5 10 -10 4 -15 -18 -3 -17
-13 -31 -21 -31 -8 0 -14 -7 -14 -15 0 -8 -7 -15 -15 -15 -8 0 -15 -9 -15 -21
0 -11 -4 -18 -9 -15 -10 7 -21 -27 -21 -66 0 -16 -4 -28 -9 -28 -10 0 -22 -40
-16 -50 9 -15 55 3 61 23 4 12 20 32 35 46 16 14 29 31 29 38 0 7 7 13 15 13
8 0 15 7 15 15 0 8 7 15 15 15 8 0 15 5 15 11 0 6 7 17 15 25 8 9 15 24 15 35
0 10 7 19 15 19 8 0 15 7 15 15 0 8 7 15 15 15 8 0 15 9 15 19 0 11 7 26 15
35 8 8 15 19 15 25 0 6 7 11 15 11 8 0 15 9 15 20 0 11 6 20 14 20 8 0 16 12
18 27 2 14 9 28 16 31 9 3 12 -35 11 -170 0 -106 -4 -165 -9 -153 -7 16 -9 13
-11 -17 -1 -21 -3 -42 -4 -48 -1 -5 -3 -46 -4 -91 0 -44 -5 -78 -10 -75 -15
10 -21 -22 -21 -109 0 -58 -4 -85 -12 -88 -10 -3 -13 -35 -13 -117 0 -82 3
-114 13 -118 8 -2 12 -24 12 -63 0 -44 4 -61 15 -65 9 -4 15 -19 15 -35 0 -18
6 -32 16 -36 30 -11 -8 -23 -78 -23 -41 0 -72 -5 -80 -13 -7 -7 -21 -16 -32
-20 -15 -6 -17 -14 -13 -44 4 -20 13 -41 22 -45 8 -5 15 -15 15 -23 0 -7 4
-15 9 -17 4 -1 11 -13 15 -24 8 -27 -13 -34 -105 -34 -50 0 -68 -4 -73 -15 -3
-8 -11 -14 -18 -13 -9 2 -14 -15 -16 -57 -4 -75 6 -135 19 -114 6 10 9 7 9
-13 0 -28 -1 -28 -67 -29 -83 -2 -216 -15 -188 -19 37 -5 -69 -19 -151 -19
-63 -1 -83 -4 -88 -16 -4 -12 -25 -15 -96 -15 -71 0 -90 -3 -90 -14 0 -8 -4
-16 -9 -18 -5 -1 -13 -15 -16 -31 l-7 -27 64 0 c41 0 71 5 84 15 12 9 42 14
81 15 39 0 67 5 76 14 10 11 59 15 203 19 214 5 294 1 294 -17 0 -6 9 -19 20
-29 11 -9 20 -24 20 -32 0 -8 7 -15 15 -15 8 0 15 -7 15 -15 0 -8 7 -15 15
-15 8 0 15 -7 15 -15 0 -8 7 -15 15 -15 8 0 15 -7 15 -15 0 -8 7 -15 15 -15 8
0 15 -7 15 -15 0 -8 6 -15 14 -15 7 0 16 -9 19 -21 3 -12 10 -18 15 -15 5 3
12 -4 15 -15 3 -12 10 -19 15 -16 4 4 16 -3 25 -14 9 -10 24 -19 32 -19 8 0
15 -7 15 -15 0 -8 7 -15 15 -15 9 0 18 -7 21 -15 4 -8 12 -15 20 -15 8 0 14
-6 14 -14 0 -8 11 -17 25 -20 14 -4 25 -11 25 -16 0 -6 7 -10 15 -10 9 0 18
-7 21 -15 4 -8 12 -15 20 -15 8 0 14 -7 14 -15 0 -8 7 -15 15 -15 8 0 15 -7
15 -15 0 -8 7 -15 15 -15 8 0 15 -6 15 -13 0 -7 13 -24 29 -38 15 -14 32 -35
36 -48 5 -17 9 -20 15 -11 5 8 10 2 15 -19 3 -17 13 -31 21 -31 8 0 14 -7 14
-15 0 -8 4 -15 9 -15 5 0 12 -14 16 -30 4 -17 13 -30 21 -30 9 0 14 -11 14
-30 0 -16 7 -33 15 -37 8 -5 15 -25 17 -46 1 -22 7 -37 15 -37 9 0 13 -16 13
-50 0 -36 4 -50 14 -50 10 0 15 -19 18 -72 2 -44 9 -73 16 -76 9 -3 12 -57 12
-207 0 -150 -3 -204 -12 -207 -7 -3 -14 -32 -16 -76 -3 -53 -8 -72 -18 -72
-10 0 -14 -15 -14 -59 0 -43 -4 -60 -15 -65 -10 -3 -15 -19 -15 -46 0 -27 -5
-43 -15 -46 -8 -4 -15 -18 -15 -34 0 -15 -6 -33 -14 -39 -8 -7 -17 -28 -21
-48 -4 -25 -9 -32 -15 -23 -6 9 -9 5 -12 -16 -2 -16 -8 -28 -14 -27 -7 1 -15
-9 -19 -24 -3 -14 -19 -37 -36 -52 -16 -14 -29 -31 -29 -38 0 -7 -7 -13 -15
-13 -8 0 -15 -7 -15 -15 0 -8 -7 -15 -15 -15 -8 0 -15 -7 -15 -15 0 -9 -9 -15
-24 -15 -13 0 -26 -7 -30 -15 -3 -8 -12 -15 -21 -15 -8 0 -15 -7 -15 -15 0
-10 -10 -15 -30 -15 -20 0 -30 -5 -30 -15 0 -10 -11 -15 -35 -15 -24 0 -35 -5
-35 -15 0 -11 -11 -15 -37 -15 -47 0 -84 -10 -78 -20 2 -4 -23 -10 -57 -13
-33 -3 -64 -10 -67 -15 -3 -5 -67 -13 -141 -17 -74 -4 -138 -12 -141 -17 -6
-9 -319 -16 -767 -18 -57 0 -101 -4 -98 -9 8 -13 -126 -21 -339 -21 -191 0
-259 5 -250 20 3 4 -9 10 -25 13 -33 7 -70 35 -70 54 0 7 -6 12 -12 11 -8 -2
-14 10 -16 30 -2 20 -9 32 -18 32 -9 0 -14 11 -14 30 0 20 -5 30 -15 30 -10 0
-15 11 -15 35 0 27 -4 35 -17 35 -14 0 -15 2 -4 9 9 6 9 10 2 12 -6 2 -12 16
-13 32 -1 15 -8 27 -15 27 -8 0 -13 12 -13 29 0 32 17 41 83 41 20 0 37 4 37
9 0 5 14 13 32 16 17 4 38 14 46 21 7 8 22 14 33 14 10 0 19 7 19 15 0 9 9 15
25 15 16 0 25 6 25 15 0 8 9 15 20 15 11 0 20 7 20 15 0 8 7 15 15 15 8 0 15
7 15 15 0 8 7 15 15 15 8 0 15 7 15 15 0 8 7 15 15 15 13 0 15 21 15 125 0
104 -2 125 -15 125 -8 0 -15 7 -15 15 0 8 -7 15 -15 15 -8 0 -15 9 -15 19 0
11 -7 26 -15 34 -7 8 -17 26 -20 40 -4 14 -13 28 -21 31 -8 3 -14 10 -14 16 0
6 -7 18 -15 26 -8 9 -15 24 -15 35 0 10 -7 19 -15 19 -9 0 -15 9 -15 24 0 13
-7 26 -15 30 -8 3 -15 12 -15 21 0 8 -7 15 -15 15 -10 0 -15 10 -15 30 0 20
-5 30 -15 30 -8 0 -15 5 -15 11 0 7 -7 17 -15 23 -9 6 -17 21 -18 34 0 12 -7
22 -14 22 -7 0 -13 7 -13 15 0 8 -5 15 -11 15 -15 0 -59 42 -59 57 0 6 -5 13
-11 15 -6 2 -13 25 -16 51 -3 25 -9 44 -13 42 -10 -6 -20 31 -20 76 0 23 -6
39 -15 43 -11 4 -15 21 -15 66 0 34 -4 59 -9 56 -14 -9 -21 21 -21 95 0 39 -4
68 -9 65 -15 -10 -21 34 -21 156 0 84 -3 117 -13 120 -14 5 -23 186 -13 244 7
33 9 34 52 34 28 0 43 -4 39 -10 -4 -6 7 -10 25 -10 23 0 33 -5 37 -20 3 -11
12 -20 19 -20 10 0 14 -13 14 -45 0 -33 4 -45 15 -45 8 0 15 -7 15 -15 0 -9 7
-18 15 -21 8 -4 15 -17 15 -30 0 -14 6 -24 14 -24 8 0 18 -14 21 -31 5 -21 10
-27 15 -19 5 8 10 2 15 -19 4 -17 11 -28 16 -25 6 3 13 -3 16 -15 3 -12 9 -21
13 -21 5 0 11 -14 15 -30 4 -17 13 -30 21 -30 8 0 14 -6 14 -14 0 -8 7 -16 15
-20 8 -3 15 -17 15 -31 0 -16 6 -25 15 -25 8 0 15 -7 15 -15 0 -8 7 -15 15
-15 8 0 15 -9 15 -20 0 -11 7 -20 15 -20 8 0 15 -7 15 -15 0 -8 8 -15 18 -15
14 0 15 -2 2 -10 -8 -5 -10 -10 -4 -10 7 0 14 -9 17 -21 3 -12 10 -18 16 -15
5 4 11 -4 13 -16 2 -13 9 -22 15 -21 6 1 14 -9 17 -23 4 -13 26 -43 49 -66 23
-22 42 -46 42 -52 0 -6 11 -12 23 -14 13 -2 43 -24 66 -48 24 -24 48 -44 54
-44 7 0 12 -7 12 -15 0 -8 7 -15 15 -15 8 0 15 -7 15 -15 0 -10 10 -15 30 -15
18 0 33 -6 36 -15 4 -8 17 -15 30 -15 14 0 27 -7 31 -16 5 -13 7 -13 14 -2 7
10 9 10 9 1 0 -8 13 -13 33 -13 36 0 70 -18 50 -27 -7 -2 -13 -11 -13 -19 0
-8 -7 -17 -15 -20 -8 -4 -15 -12 -15 -19 0 -8 -8 -21 -17 -31 -10 -10 -18 -21
-18 -26 0 -5 -6 -12 -12 -16 -7 -4 -17 -26 -22 -47 -5 -22 -10 -33 -11 -25 -3
31 -19 -26 -19 -73 -1 -27 -5 -46 -10 -43 -5 3 -12 -22 -15 -57 -4 -34 -12
-65 -18 -68 -5 -3 -12 -52 -15 -108 -5 -75 -9 -101 -19 -101 -8 0 -14 -6 -14
-14 0 -8 -13 -17 -30 -21 -25 -6 -30 -11 -30 -37 0 -30 1 -31 41 -25 23 3 45
10 48 15 3 6 18 13 32 17 25 6 26 10 32 93 4 48 11 88 17 90 5 2 10 18 10 36
0 57 12 126 21 120 5 -3 9 3 10 13 2 38 11 78 19 83 5 3 12 18 15 33 4 15 11
27 15 27 5 0 11 13 15 29 3 16 13 32 21 35 8 3 14 17 14 31 0 16 6 25 15 25 8
0 15 6 15 14 0 8 7 16 15 20 8 3 15 12 15 21 0 8 7 15 15 15 8 0 15 7 15 15 0
10 10 15 29 15 16 0 31 5 33 11 2 5 24 13 48 16 25 4 51 12 58 20 7 7 22 13
33 13 10 0 19 7 19 15 0 8 3 14 8 14 27 -5 52 3 52 16 0 8 7 15 15 15 9 0 18
7 21 15 4 8 12 15 20 15 8 0 22 9 31 19 9 11 20 18 25 15 4 -3 8 2 8 10 0 23
365 24 374 1 4 -10 20 -15 50 -15 24 0 46 -5 48 -10 2 -6 21 -13 43 -17 22 -3
44 -12 48 -20 4 -7 19 -13 33 -13 13 0 27 -7 30 -15 4 -8 17 -15 30 -15 14 0
27 -7 30 -15 8 -19 64 -20 64 -1 0 8 8 17 18 21 16 6 16 7 0 19 -10 7 -18 18
-18 25 0 6 -7 11 -15 11 -9 0 -18 7 -21 15 -4 8 -17 15 -30 15 -14 0 -27 7
-30 15 -4 8 -16 15 -28 15 -33 0 -66 11 -61 21 3 4 -17 11 -45 15 -29 4 -46
10 -40 14 13 8 -46 20 -103 20 -21 0 -36 4 -33 9 9 13 -47 21 -150 21 -86 0
-117 9 -79 24 8 3 15 12 15 21 0 8 7 15 15 15 8 0 15 7 15 15 0 8 7 15 15 15
9 0 15 9 15 25 0 14 7 28 15 31 8 4 15 13 15 20 0 8 7 17 15 20 8 4 15 10 15
15 0 5 -7 9 -15 9 -8 0 -15 7 -15 15 0 10 -10 15 -30 15 -20 0 -30 -5 -30 -15
0 -8 -6 -15 -14 -15 -8 0 -17 -14 -21 -30 -4 -17 -11 -28 -16 -24 -5 3 -9 -2
-9 -11 0 -8 -7 -18 -15 -21 -8 -4 -15 -12 -15 -20 0 -8 -6 -14 -14 -14 -8 0
-17 -13 -21 -30 -4 -16 -13 -30 -21 -30 -8 0 -14 -7 -14 -15 0 -8 -7 -15 -15
-15 -8 0 -15 -7 -15 -15 0 -8 -7 -15 -15 -15 -8 0 -15 -6 -15 -14 0 -7 -9 -16
-21 -19 -12 -3 -18 -10 -15 -16 3 -5 -7 -12 -24 -16 -16 -4 -30 -13 -30 -21 0
-8 -6 -14 -14 -14 -8 0 -16 -5 -18 -12 -2 -6 -15 -13 -28 -15 -14 -2 -28 -10
-33 -18 -5 -9 -23 -15 -46 -15 -25 0 -41 -5 -45 -15 -8 -21 -158 -21 -180 0
-8 8 -26 15 -41 15 -14 0 -28 7 -31 15 -4 8 -17 15 -30 15 -14 0 -27 6 -30 14
-3 8 -19 18 -35 21 -16 4 -29 11 -29 16 0 5 -7 9 -15 9 -8 0 -15 7 -15 15 0 8
-6 15 -13 15 -7 0 -20 9 -30 20 -9 11 -24 20 -32 20 -8 0 -15 7 -15 15 0 8 -7
15 -15 15 -8 0 -15 7 -15 15 0 8 -7 15 -15 15 -8 0 -15 7 -15 15 0 8 -7 15
-15 15 -8 0 -15 7 -15 15 0 8 -6 15 -14 15 -8 0 -17 13 -21 30 -4 16 -13 30
-21 30 -8 0 -14 7 -14 15 0 8 -7 15 -15 15 -8 0 -15 7 -15 15 0 8 -7 15 -15
15 -8 0 -15 9 -15 20 0 11 -6 20 -14 20 -16 0 -27 35 -21 65 2 11 4 28 4 38 1
9 8 17 16 17 8 0 15 7 15 15 0 9 7 18 15 21 8 4 15 12 15 19 0 15 45 65 60 65
5 0 10 7 10 15 0 8 7 15 15 15 8 0 15 7 15 15 0 8 7 15 15 15 8 0 23 9 32 20
10 11 21 20 26 20 5 0 15 7 23 15 9 8 24 15 35 15 10 0 18 6 17 12 -2 7 7 14
20 16 12 2 20 8 17 13 -4 5 1 9 10 9 9 0 13 -4 10 -10 -3 -5 3 -10 14 -10 12
0 21 -7 21 -15 0 -8 7 -15 15 -15 8 0 15 -5 15 -11 0 -14 135 -149 149 -149 6
0 11 -7 11 -15 0 -8 7 -15 15 -15 8 0 15 -6 15 -14 0 -17 37 -27 68 -19 16 4
22 13 22 34 0 19 -5 29 -15 29 -8 0 -15 7 -15 15 0 8 -7 15 -15 15 -8 0 -15 9
-15 20 0 11 7 20 16 20 8 0 12 5 9 10 -3 6 4 14 17 19 17 7 19 10 6 10 -11 1
-18 9 -18 21 0 28 -18 25 -26 -5 -5 -19 -13 -25 -35 -25 -16 0 -29 4 -29 9 0
5 -9 11 -21 14 -12 3 -18 10 -14 16 3 6 1 11 -6 11 -6 0 -29 17 -50 39 -33 32
-39 45 -39 80 l0 41 -45 0 c-33 0 -45 4 -45 15 0 8 -7 15 -15 15 -8 0 -15 7
-15 15 0 8 -7 15 -15 15 -8 0 -15 7 -15 15 0 8 -7 15 -15 15 -8 0 -15 7 -15
15 0 8 -7 15 -15 15 -8 0 -15 5 -15 11 0 7 -16 27 -35 46 -19 19 -35 40 -35
48 0 8 -7 15 -15 15 -8 0 -15 6 -15 14 0 8 -7 16 -15 20 -8 3 -15 13 -15 21 0
9 -4 14 -9 10 -6 -3 -14 3 -20 12 -8 15 -24 18 -106 18 -62 0 -98 -4 -103 -12
-7 -12 -38 -17 -79 -15 -19 2 -23 8 -23 33 0 19 -4 28 -11 24 -6 -4 -13 2 -16
14 -3 12 -12 21 -19 21 -8 0 -14 6 -14 14 0 7 -9 16 -21 19 -12 3 -18 10 -14
16 3 6 -1 11 -9 11 -8 0 -19 6 -23 14 -4 8 -19 16 -33 18 -14 2 -24 8 -23 15
1 6 -12 14 -30 17 -25 5 -29 9 -17 16 11 7 3 10 -27 10 -24 0 -43 -4 -43 -10
0 -5 7 -10 15 -10 8 0 15 -7 15 -15 0 -9 9 -15 25 -15 14 0 28 -7 31 -15 4 -8
12 -15 20 -15 8 0 14 -6 14 -14 0 -8 14 -18 31 -21 21 -5 27 -10 19 -15 -8 -5
-3 -11 16 -18 16 -6 22 -11 14 -12 -8 -1 -1 -8 15 -15 17 -8 24 -14 16 -15 -7
0 1 -12 18 -27 17 -15 31 -33 31 -40 0 -7 5 -13 10 -13 6 0 10 -7 10 -15 0 -8
-4 -15 -9 -15 -5 0 -11 -9 -14 -20 -3 -11 -13 -20 -22 -20 -9 0 -13 -5 -10
-11 4 -6 -2 -13 -14 -16 -12 -3 -21 -10 -21 -15 0 -5 -7 -16 -15 -24 -8 -9
-15 -24 -15 -35 0 -10 -7 -19 -15 -19 -8 0 -15 -7 -15 -16 0 -12 -10 -14 -47
-12 -32 2 -47 7 -45 15 1 9 -12 13 -43 13 -31 0 -47 5 -51 15 -4 9 -19 15 -39
15 -19 0 -40 7 -49 15 -8 8 -23 15 -33 15 -10 0 -29 3 -41 7 -18 4 -20 8 -10
14 9 6 6 9 -12 9 -36 0 -71 11 -65 20 3 4 -11 11 -30 14 -19 4 -35 11 -35 16
0 4 -14 11 -30 15 -16 4 -30 10 -30 15 0 5 -13 11 -29 15 -16 3 -32 13 -35 21
-3 8 -17 14 -31 14 -16 0 -25 6 -25 15 0 8 -9 15 -20 15 -11 0 -20 7 -20 15 0
9 -9 15 -25 15 -14 0 -28 7 -31 15 -4 8 -12 15 -20 15 -8 0 -14 6 -14 14 0 8
-11 17 -25 20 -14 4 -23 11 -20 16 3 6 -4 10 -15 10 -13 0 -24 8 -27 20 -3 11
-12 20 -19 20 -22 0 -16 17 9 24 12 3 68 6 125 6 84 0 102 3 102 15 0 10 10
15 30 15 19 0 30 5 30 14 0 9 12 16 28 18 21 2 28 9 30 31 3 24 0 27 -27 27
-20 0 -31 -5 -31 -14 0 -9 -12 -16 -32 -18 -18 -2 -31 -7 -28 -13 7 -13 -59
-24 -151 -24 -86 -1 -141 7 -134 20 3 4 -10 11 -30 15 -20 3 -35 12 -35 20 0
8 -7 14 -15 14 -8 0 -15 7 -15 16 0 8 -5 12 -11 9 -6 -4 -13 2 -16 14 -3 12
-12 21 -19 21 -8 0 -14 7 -14 15 0 8 -7 15 -15 15 -8 0 -15 6 -15 14 0 8 -7
16 -15 20 -8 3 -15 16 -15 30 0 13 -7 26 -15 30 -11 4 -15 21 -15 65 0 58 1
60 30 66 17 4 27 11 24 16 -3 6 3 13 14 16 11 3 23 16 26 29 4 13 11 24 16 24
6 0 10 5 10 11 0 7 16 27 35 46 34 33 35 36 35 109 0 57 -4 76 -15 80 -8 4
-15 14 -15 25 0 10 -23 40 -50 67 -60 59 -60 75 -2 131 23 22 44 52 48 66 3
14 12 25 20 25 8 0 14 9 14 21 0 11 4 18 9 15 5 -4 12 7 16 24 7 30 35 43 35
15 0 -8 7 -15 15 -15 8 0 15 -6 15 -14 0 -7 10 -15 23 -18 36 -6 67 2 67 18 0
8 7 14 15 14 8 0 15 7 15 15 0 9 6 18 14 21 9 3 17 27 22 60 3 30 10 54 15 54
5 0 9 36 9 80 0 44 -4 80 -9 80 -5 0 -12 13 -16 29 -6 27 -11 30 -48 33 -40 3
-42 5 -40 32 1 16 7 32 12 35 5 4 11 30 12 60 2 30 8 55 15 58 6 2 15 27 18
54 4 27 11 47 15 45 5 -3 11 13 14 36 3 22 11 44 18 49 7 4 14 18 16 30 2 13
10 27 18 32 8 4 15 15 15 22 0 8 4 15 9 15 5 0 12 14 16 30 4 17 13 30 21 30
9 0 14 11 14 30 0 20 5 30 15 30 8 0 15 7 15 15 0 8 7 15 15 15 8 0 15 9 15
20 0 11 7 20 15 20 13 0 20 18 16 43 0 4 6 7 14 7 8 0 15 7 15 15 0 8 7 15 15
15 8 0 15 6 15 13 0 15 44 57 59 57 6 0 11 7 11 15 0 8 7 15 15 15 8 0 15 7
15 15 0 8 7 15 15 15 8 0 15 7 15 15 0 8 7 15 15 15 8 0 15 7 15 15 0 9 9 15
25 15 13 0 28 6 32 13 4 8 16 17 26 20 10 4 15 11 12 17 -3 5 3 10 14 10 11 0
26 6 33 14 8 7 29 17 46 21 18 3 32 11 32 16 0 5 18 12 39 15 22 4 42 13 45
20 3 8 20 14 41 14 20 0 34 4 31 9 -8 12 29 21 91 21 32 0 53 5 56 13 5 17
674 18 685 1 4 -6 38 -13 75 -16 38 -2 71 -9 75 -14 4 -6 25 -14 46 -17 22 -4
42 -10 45 -15 3 -5 21 -13 39 -17 17 -3 32 -10 32 -15 0 -5 14 -11 30 -15 17
-4 30 -10 30 -15 0 -4 12 -11 26 -14 15 -4 33 -14 41 -21 8 -8 23 -15 34 -15
10 0 19 -7 19 -15 0 -8 9 -15 20 -15 11 0 20 -4 20 -10 0 -5 11 -12 25 -16 36
-9 32 -34 -5 -34 -20 0 -30 -5 -30 -15 0 -11 -13 -15 -52 -16 -29 -1 -56 -1
-60 0 -5 0 -8 -6 -8 -14 0 -10 -10 -15 -29 -15 -23 0 -30 -5 -34 -27 -4 -20 1
-33 13 -45 20 -19 50 -24 50 -9 0 5 23 12 50 16 28 4 48 10 45 15 -5 8 67 20
122 20 19 0 32 4 29 9 -7 11 28 21 81 21 23 0 43 5 45 12 2 6 30 13 61 16 57
4 57 5 57 37 0 18 -3 54 -7 81 l-7 49 -7 -35 c-5 -30 -7 -26 -8 23 -1 43 -5
57 -16 57 -10 0 -15 10 -15 30 0 20 -5 30 -15 30 -8 0 -15 5 -15 11 0 15 -74
89 -89 89 -6 0 -11 7 -11 15 0 10 -10 15 -27 16 -16 0 -22 3 -15 6 13 5 17 24
5 22 -5 -1 -26 -1 -48 1 -30 1 -35 3 -21 9 18 7 18 8 -5 14 -13 4 -42 7 -64 8
-29 0 -35 2 -21 8 18 7 18 8 2 14 -10 4 -61 8 -114 9 -95 1 -95 2 -32 8 36 4
51 7 34 8 -17 1 -58 5 -92 8 l-60 7 1 -34 c1 -23 7 -34 17 -34 8 0 16 -10 18
-22 2 -15 10 -23 23 -23 12 0 19 -7 19 -20 0 -11 7 -23 16 -27 13 -5 13 -7 2
-14 -10 -7 -9 -9 5 -9 11 0 17 -8 17 -24 0 -18 7 -26 23 -29 16 -3 14 -5 -9
-6 -20 0 -34 5 -38 14 -3 9 -18 15 -35 15 -16 0 -36 7 -45 15 -8 8 -32 15 -55
15 -23 0 -43 6 -48 14 -5 8 -32 15 -67 18 -33 3 -62 10 -64 16 -2 7 -22 12
-44 12 -31 0 -41 4 -45 20 -3 11 -9 17 -14 14 -5 -3 -9 1 -9 8 0 8 -9 21 -20
31 -11 9 -20 24 -20 32 0 17 -64 20 -110 5 -24 -8 -24 -8 -2 -9 15 -1 22 -7
22 -20 0 -11 4 -21 9 -23 5 -1 13 -15 16 -30 l7 -28 -201 0 c-172 0 -201 -2
-201 -15 0 -11 -12 -15 -49 -15 -70 0 -141 -11 -135 -21 3 -5 -6 -9 -19 -9
-39 0 -87 -12 -82 -20 3 -4 -18 -10 -46 -14 -27 -4 -47 -11 -44 -15 2 -5 -11
-12 -29 -15 -19 -4 -36 -11 -38 -15 -3 -10 -28 -14 -65 -12 -21 1 -23 6 -23
61 l0 61 -44 -2 -44 -3 -7 -58 c-4 -32 -10 -58 -15 -58 -4 0 -10 -20 -13 -45
-7 -45 -32 -85 -54 -85 -7 0 -13 -7 -13 -15 0 -8 -7 -15 -15 -15 -8 0 -15 -7
-15 -15 0 -8 -7 -15 -15 -15 -8 0 -15 -7 -15 -15 0 -8 -7 -15 -15 -15 -8 0
-15 -7 -15 -15 0 -8 -7 -15 -15 -15 -8 0 -15 -7 -15 -15 0 -9 -9 -15 -25 -15
-18 0 -25 5 -25 20 0 13 -7 20 -20 20 -13 0 -20 7 -20 20 0 13 -7 20 -20 20
-13 0 -20 7 -20 20 0 13 -7 20 -20 20 -13 0 -20 7 -20 20 0 13 -7 20 -19 20
-10 0 -21 9 -24 20 -3 11 -12 20 -20 20 -8 0 -17 9 -20 20 -3 11 -12 20 -21
20 -9 0 -16 7 -16 15 0 12 -14 15 -70 15 -56 0 -70 -3 -70 -15 0 -12 -13 -15
-60 -15 -47 0 -60 -3 -60 -15 0 -13 -21 -15 -130 -15 -111 0 -129 -2 -124 -15
5 -12 -5 -15 -60 -15 -47 0 -65 -4 -63 -12 1 -9 -14 -14 -45 -16 -34 -2 -48
-7 -48 -18 0 -7 -7 -14 -15 -14 -23 0 -18 -38 5 -42 12 -2 20 -7 19 -13 -1 -5
16 -15 37 -21 22 -6 39 -17 39 -25 0 -8 10 -15 23 -17 14 -2 22 -10 22 -23 0
-12 7 -19 20 -19 13 0 20 -7 20 -20 0 -13 7 -20 19 -20 10 0 21 -9 24 -20 3
-11 9 -20 14 -19 21 4 33 -2 33 -16 0 -8 14 -17 35 -21 25 -4 35 -11 35 -25 0
-12 7 -19 20 -19 13 0 20 -7 20 -20 0 -13 7 -20 20 -20 13 0 20 -7 20 -19 0
-13 8 -21 23 -23 12 -2 21 -9 20 -15 -1 -6 16 -14 38 -18 29 -5 39 -11 37 -23
-2 -11 5 -18 20 -20 14 -2 22 -10 22 -23 0 -12 7 -19 20 -19 13 0 20 -7 20
-20 0 -13 7 -20 19 -20 10 0 21 -9 24 -20 3 -11 11 -19 19 -18 7 2 13 -3 12
-9 -1 -7 -2 -33 -2 -57 -1 -25 -9 -51 -17 -60 -9 -8 -15 -33 -15 -60 0 -28 -5
-48 -14 -53 -9 -5 -15 -32 -18 -76 -2 -38 -9 -71 -15 -75 -6 -4 -14 -34 -18
-67 -6 -44 -10 -55 -16 -40 -7 19 -10 18 -13 -7 -2 -21 -26 -20 -26 1 0 14 -6
21 -20 21 -13 0 -20 7 -20 20 0 14 -7 20 -25 21 -46 3 -50 4 -50 19 0 8 -10
16 -22 18 -15 2 -23 10 -23 22 0 12 -8 20 -22 22 -13 2 -23 10 -23 18 0 15 -4
16 -50 19 -18 1 -25 7 -25 21 0 13 -7 20 -20 20 -13 0 -20 7 -20 20 0 13 -7
20 -20 20 -11 0 -23 7 -26 15 -3 8 -21 17 -40 21 -24 4 -34 12 -34 25 0 12 -7
19 -19 19 -10 0 -21 9 -24 20 -5 18 -30 26 -60 21 -5 -1 -11 8 -14 19 -3 11
-14 20 -24 20 -12 0 -19 7 -19 20 0 13 -7 20 -19 20 -10 0 -21 9 -24 20 -4 15
-14 20 -37 20 -23 0 -33 5 -37 20 -3 11 -14 20 -24 20 -12 0 -19 7 -19 20 0
15 -7 20 -25 20 -15 0 -25 6 -25 15 0 8 -14 17 -35 21 -25 4 -35 11 -35 25 0
12 -7 19 -19 19 -10 0 -21 9 -24 20 -3 11 -14 21 -26 21 -42 3 -46 4 -46 19 0
8 -10 16 -22 18 -15 2 -23 10 -23 22 0 12 -8 20 -22 22 -13 2 -22 9 -21 15 1
6 -15 14 -37 18 -30 5 -40 11 -40 26 0 12 -7 19 -20 19 -13 0 -20 7 -20 20 0
15 -7 20 -25 20 -15 0 -25 6 -25 15 0 8 -14 17 -35 21 -25 4 -35 11 -35 25 0
12 -7 19 -19 19 -10 0 -21 9 -24 20 -4 15 -14 20 -37 20 -23 0 -33 5 -37 20
-3 11 -14 20 -24 20 -12 0 -19 7 -19 20 0 13 -7 20 -20 20 -12 0 -24 9 -29 23
-5 12 -11 21 -15 20 -3 -2 -17 -3 -31 -3 -18 0 -25 5 -25 20 0 13 -7 20 -20
20 -13 0 -20 7 -20 20 0 15 -7 20 -25 20 -15 0 -25 6 -25 15 0 8 -14 17 -35
21 -25 4 -35 11 -35 25 0 12 -7 19 -19 19 -10 0 -21 9 -24 20 -4 15 -14 20
-37 20 -23 0 -33 5 -37 20 -3 11 -14 20 -24 20 -12 0 -19 7 -19 19 0 13 -8 21
-22 23 -13 2 -23 10 -23 18 0 15 -4 16 -50 19 -18 1 -25 7 -25 21 0 13 -7 20
-19 20 -10 0 -21 9 -24 20 -3 11 -14 21 -26 21 -42 3 -46 4 -46 19 0 8 -10 16
-22 18 -15 2 -23 10 -23 22 0 12 -8 20 -22 22 -13 2 -23 10 -23 18 0 10 -12
16 -37 18 -30 3 -38 7 -38 23 0 12 -7 19 -20 19 -13 0 -20 7 -20 20 0 15 -7
20 -25 20 -15 0 -25 6 -25 15 0 8 -14 17 -35 21 -25 4 -35 11 -35 25 0 12 -7
19 -20 19 -13 0 -20 7 -20 20 0 14 -7 20 -25 21 -46 3 -50 4 -50 19 0 8 -10
16 -22 18 -15 2 -23 10 -23 23 0 12 -7 19 -19 19 -10 0 -21 9 -24 20 -3 11 -9
20 -14 19 -4 -1 -20 -1 -35 0 -21 1 -28 6 -28 21 0 13 -7 20 -20 20 -13 0 -20
7 -20 20 0 15 -7 20 -25 20 -15 0 -25 6 -25 15 0 8 -14 17 -35 21 -25 4 -35
11 -35 25 0 12 -7 19 -19 19 -10 0 -21 9 -24 20 -3 11 -14 21 -26 21 -42 3
-46 4 -46 19 0 8 -10 16 -22 18 -15 2 -23 10 -23 22 0 12 -8 20 -22 22 -13 2
-23 10 -23 18 0 15 -4 16 -50 19 -18 1 -25 7 -25 21 0 13 -7 20 -20 20 -13 0
-20 7 -20 20 0 15 -7 20 -25 20 -19 0 -25 5 -26 23 0 20 -1 20 -8 3 -7 -18 -8
-18 -14 -3 -3 9 -16 17 -27 17 -13 0 -20 7 -20 20 0 13 -7 20 -19 20 -10 0
-21 9 -24 20 -3 11 -14 21 -26 21 -42 3 -46 4 -46 19 0 8 -10 16 -23 18 -14 2
-22 10 -22 22 0 12 -8 20 -23 22 -12 2 -22 10 -22 18 0 15 -4 16 -50 19 -18 1
-25 7 -25 21 0 13 -7 20 -20 20 -13 0 -20 7 -20 20 0 13 -7 20 -19 20 -32 0
-55 12 -40 21 8 5 -1 10 -24 14 -27 5 -37 12 -37 26 0 12 -7 19 -19 19 -10 0
-21 9 -24 20 -4 15 -14 20 -41 20 -29 0 -36 4 -36 20 0 13 -7 20 -20 20 -20 0
-20 -7 -20 -600 l0 -600 25 -1 c46 -3 50 -4 50 -19 0 -8 10 -16 21 -18 12 -2
24 -12 27 -23 3 -11 9 -19 14 -18 35 6 63 -3 63 -20 0 -13 8 -21 23 -23 12 -2
21 -9 20 -15 -1 -6 15 -14 37 -18 30 -5 40 -11 40 -26 0 -16 7 -19 40 -19 33
0 40 -3 40 -20 0 -13 7 -20 19 -20 10 0 21 -9 24 -20 3 -11 9 -20 14 -19 4 1
20 1 36 0 20 -1 27 -6 27 -21 0 -15 7 -20 25 -20 15 0 25 -6 25 -15 0 -8 14
-17 34 -20 22 -5 36 -14 39 -26 4 -14 14 -19 41 -19 29 0 36 -4 36 -19 0 -13
8 -21 23 -23 12 -2 21 -9 20 -16 -2 -7 14 -14 37 -18 30 -5 40 -11 40 -25 0
-13 8 -19 25 -20 46 -3 50 -4 50 -19 0 -8 10 -16 21 -18 12 -2 24 -12 27 -23
4 -14 14 -19 41 -19 29 0 36 -4 36 -20 0 -15 7 -20 25 -20 15 0 25 -6 25 -15
0 -8 14 -17 35 -21 25 -4 35 -11 35 -25 0 -15 7 -19 40 -19 33 0 40 -3 40 -19
0 -13 8 -21 23 -23 12 -2 21 -9 20 -15 -1 -6 15 -14 37 -18 30 -5 40 -11 40
-26 0 -12 7 -19 19 -19 32 0 55 -12 40 -21 -8 -5 0 -10 23 -14 24 -5 38 -14
41 -26 4 -14 14 -19 41 -19 29 0 36 -4 36 -19 0 -13 8 -21 22 -23 13 -2 22 -9
21 -15 -1 -6 15 -14 37 -18 30 -5 40 -11 40 -25 0 -14 9 -20 38 -22 25 -2 37
-8 37 -18 0 -8 10 -16 21 -18 12 -2 24 -12 27 -23 3 -11 9 -19 14 -18 4 1 20
1 36 0 20 -1 27 -6 27 -21 0 -15 7 -20 25 -20 15 0 25 -6 25 -15 0 -8 14 -17
35 -21 25 -4 35 -11 35 -25 0 -15 7 -19 40 -19 33 0 40 -3 40 -19 0 -13 8 -21
22 -23 13 -2 23 -10 23 -18 0 -15 4 -16 50 -19 18 -1 25 -7 25 -21 0 -14 7
-20 25 -21 46 -3 50 -4 50 -19 0 -8 10 -16 23 -18 14 -2 22 -10 22 -23 0 -16
7 -19 40 -19 33 0 40 -3 40 -19 0 -13 8 -21 23 -23 12 -2 21 -9 20 -15 -1 -6
15 -14 37 -18 30 -5 40 -11 40 -26 0 -13 7 -19 25 -20 46 -3 50 -4 50 -19 0
-8 10 -16 21 -18 12 -2 24 -12 27 -23 3 -11 9 -19 14 -18 4 1 20 1 36 0 20 -1
27 -6 27 -21 0 -15 7 -20 25 -20 15 0 25 -6 25 -14 0 -13 28 -26 58 -26 6 0
12 11 12 25 0 16 6 25 15 25 8 0 15 6 15 14 0 8 14 18 31 21 20 5 27 10 20 15
-8 4 3 10 26 13 83 14 173 4 173 -19 0 -8 9 -14 20 -14 11 0 20 -6 20 -14 0
-8 7 -16 15 -20 10 -3 15 -20 16 -48 0 -31 3 -37 8 -24 7 18 8 18 14 -5 9 -33
7 -100 -3 -124 l-9 -20 -1 20 c-1 11 -6 0 -11 -24 -10 -52 -6 -61 27 -61 17 0
24 -6 24 -19 0 -13 8 -21 23 -23 12 -2 21 -9 20 -15 -1 -6 15 -14 37 -18 30
-5 40 -11 40 -26 0 -16 7 -19 40 -19 33 0 40 -3 38 -17 -2 -11 6 -19 22 -24
34 -10 15 -16 -55 -18 -33 -1 -45 -5 -45 -16 0 -8 -4 -15 -10 -15 -5 0 -10 -7
-10 -15 0 -8 7 -15 15 -15 8 0 15 -6 15 -14 0 -11 22 -15 100 -18 62 -2 104
-7 108 -15 4 -6 21 -13 37 -15 l30 -3 3 -90 c2 -53 6 -84 11 -76 5 8 11 -8 16
-45 4 -33 12 -62 18 -66 6 -3 13 -34 15 -67 2 -33 8 -59 12 -56 8 5 20 -28 20
-59 0 -10 7 -24 15 -30 9 -6 17 -21 18 -34 0 -12 7 -22 14 -22 7 0 13 -9 13
-20 0 -11 7 -20 15 -20 8 0 15 -7 15 -15 0 -10 -11 -15 -35 -15 -28 0 -35 4
-35 20 0 17 -7 20 -40 20 -33 0 -40 3 -40 20 0 17 -7 20 -40 20 -32 0 -40 4
-40 19 0 14 -10 20 -42 26 -31 6 -37 9 -23 13 16 4 11 8 -20 17 -22 7 -40 18
-40 26 0 9 -13 15 -36 17 -27 2 -38 9 -42 23 -4 14 -14 19 -41 19 -29 0 -36 4
-36 20 0 17 -7 20 -40 20 -33 0 -40 3 -40 20 0 17 -7 20 -40 20 -33 0 -40 3
-40 20 0 14 -7 20 -25 21 -46 3 -50 4 -50 19 0 8 -9 16 -20 18 -11 2 -28 13
-38 23 -10 10 -28 19 -41 19 -15 0 -26 7 -29 20 -3 11 -9 20 -14 19 -4 -1 -20
-1 -35 0 -21 1 -28 6 -28 21 0 17 -7 20 -40 20 -33 0 -40 3 -40 20 0 17 -7 20
-40 20 -33 0 -40 3 -40 20 0 15 -7 20 -27 21 -16 1 -32 1 -36 0 -5 -1 -11 7
-14 18 -3 14 -17 22 -46 27 -29 5 -36 9 -22 13 15 3 11 7 -20 16 -22 7 -40 18
-40 26 0 14 -4 15 -50 18 -18 1 -25 7 -25 21 0 17 -7 20 -40 20 -33 0 -40 3
-40 20 0 17 -7 20 -40 20 -33 0 -40 3 -40 20 0 17 -7 20 -40 20 -32 0 -40 4
-40 19 0 14 -10 20 -40 25 -22 3 -39 11 -37 18 1 6 -9 14 -22 17 -13 4 -27 15
-30 24 -4 10 -10 18 -14 18 -38 -4 -55 1 -60 19 -4 15 -14 20 -41 20 -29 0
-36 4 -36 20 0 17 -7 20 -40 20 -33 0 -40 3 -40 20 0 17 -7 20 -40 20 -33 0
-40 3 -40 20 0 14 -7 20 -25 21 -46 3 -50 4 -50 19 0 8 -10 16 -23 18 -13 2
-26 10 -29 18 -3 7 -20 16 -38 20 -21 4 -35 13 -38 25 -4 14 -14 19 -41 19
-29 0 -36 4 -36 20 0 17 -7 20 -40 20 -33 0 -40 3 -40 20 0 17 -7 20 -40 20
-33 0 -40 3 -40 20 0 16 -7 20 -36 20 -27 0 -37 5 -41 20 -3 11 -13 20 -23 20
-32 0 -53 12 -39 21 8 5 -1 10 -25 14 -25 5 -40 14 -45 29 -5 11 -11 20 -15
19 -23 -10 -54 -1 -59 17 -4 15 -14 20 -41 20 -29 0 -36 4 -36 20 0 17 -7 20
-40 20 -33 0 -40 3 -40 20 0 16 -7 20 -36 20 -27 0 -37 5 -41 20 -5 18 -36 27
-59 18 -4 -2 -10 7 -15 20 -5 12 -17 22 -26 22 -10 0 -26 9 -36 20 -9 11 -28
20 -41 20 -15 0 -26 7 -29 20 -4 15 -14 20 -40 20 -26 0 -36 5 -40 20 -4 15
-14 20 -41 20 -29 0 -36 4 -36 20 0 17 -7 20 -40 20 -33 0 -40 3 -40 20 0 15
-7 20 -27 21 -16 1 -32 1 -36 0 -5 -1 -11 8 -14 19 -3 12 -14 20 -27 20 -27 0
-59 19 -36 21 8 1 -3 7 -25 13 -22 7 -40 19 -40 27 0 9 -13 15 -36 17 -27 2
-38 9 -42 23 -4 14 -14 19 -41 19 l-36 0 0 -440 c0 -433 0 -440 20 -440 13 0
20 -7 20 -20 0 -17 7 -20 40 -20 33 0 40 -3 40 -19 0 -16 8 -20 43 -23 25 -2
41 -8 40 -15 -1 -6 16 -14 40 -18 48 -8 83 -24 57 -25 -29 -2 24 -19 63 -19
30 -1 37 -5 37 -21 0 -17 7 -20 40 -20 33 0 40 -3 40 -20 0 -17 7 -20 40 -20
27 0 40 -4 40 -14 0 -7 18 -17 43 -23 23 -5 41 -14 40 -20 -2 -10 83 -31 97
-24 2 1 7 -7 12 -18 6 -17 16 -21 48 -21 33 0 40 -3 40 -20 0 -17 7 -20 40
-20 33 0 40 -3 40 -20 0 -17 7 -20 40 -20 28 0 40 -4 40 -14 0 -10 16 -17 45
-22 26 -3 45 -12 45 -19 0 -15 31 -25 78 -25 25 0 32 -4 32 -20 0 -17 7 -20
40 -20 33 0 40 -3 40 -20 0 -17 7 -20 39 -20 29 0 40 -5 43 -18 3 -11 16 -18
38 -20 38 -3 52 -10 45 -22 -5 -8 66 -24 90 -20 5 1 12 -8 17 -19 6 -16 16
-21 47 -21 30 0 40 -4 44 -20 4 -15 14 -20 41 -20 29 0 36 -4 36 -20 0 -17 7
-20 40 -20 28 0 40 -4 40 -15 0 -9 14 -16 38 -20 62 -11 76 -16 62 -25 -15 -9
21 -20 68 -20 25 0 32 -4 32 -20 0 -17 7 -20 40 -20 33 0 40 -3 40 -20 0 -17
7 -20 40 -20 28 0 40 -4 40 -14 0 -10 16 -17 46 -22 32 -4 44 -10 40 -20 -4
-11 46 -26 99 -29 6 0 10 -7 10 -15 0 -10 13 -16 43 -18 34 -3 42 -7 42 -23 0
-16 7 -19 40 -19 33 0 40 -3 40 -20 0 -17 7 -20 40 -20 28 0 40 -4 40 -14 0
-9 16 -17 43 -21 48 -8 83 -24 57 -25 -29 -2 24 -19 63 -19 30 -1 37 -5 37
-21 0 -16 7 -20 35 -20 33 0 35 -2 35 -34 0 -19 -4 -36 -9 -38 -4 -1 -12 -13
-15 -26 -5 -15 -3 -24 8 -28 11 -4 16 -19 16 -50 0 -32 4 -44 15 -44 8 0 15
-7 15 -15 0 -9 7 -18 16 -22 12 -4 12 -8 4 -13 -9 -5 -5 -10 11 -15 13 -4 34
-21 48 -36 14 -16 31 -29 39 -29 7 0 10 -5 7 -10 -3 -6 2 -13 12 -17 10 -4 24
-13 31 -20 7 -7 19 -13 27 -13 7 0 15 -7 19 -15 3 -8 12 -15 21 -15 8 0 15 -7
15 -15 0 -8 9 -15 20 -15 11 0 20 -4 20 -10 0 -5 11 -12 25 -16 14 -3 25 -12
25 -20 0 -9 11 -14 30 -14 20 0 30 -5 30 -15 0 -8 9 -15 20 -15 11 0 20 -7 20
-15 0 -9 9 -15 25 -15 14 0 28 -6 31 -14 3 -8 19 -18 35 -21 16 -4 29 -10 29
-15 0 -5 13 -11 30 -15 16 -4 30 -10 30 -15 0 -4 12 -11 27 -15 15 -3 31 -12
35 -18 7 -12 12 -13 48 -16 11 0 19 -7 18 -13 -2 -8 10 -14 30 -16 20 -2 32
-9 32 -18 0 -9 11 -14 30 -14 20 0 30 -5 30 -15 0 -10 10 -15 34 -15 19 0 41
-7 50 -15 8 -8 26 -15 40 -15 16 0 26 -6 26 -15 0 -10 11 -15 35 -15 27 0 35
-4 35 -17 0 -15 2 -16 10 -3 5 8 10 10 10 4 0 -7 16 -15 35 -18 19 -4 35 -11
35 -15 0 -5 19 -11 41 -14 23 -3 45 -10 48 -16 4 -5 26 -13 49 -17 23 -4 42
-10 42 -15 0 -4 21 -11 48 -15 26 -4 50 -11 53 -16 3 -5 23 -11 45 -15 21 -3
42 -11 45 -16 4 -5 31 -12 60 -15 30 -3 58 -11 62 -18 5 -9 28 -14 67 -14 43
0 59 -4 58 -12 -2 -9 13 -14 42 -16 41 -3 47 -7 63 -41 9 -21 17 -56 17 -79
l0 -42 -50 0 c-43 0 -50 3 -50 20 0 17 -7 20 -45 21 -67 2 -70 3 -70 19 0 10
-13 16 -41 18 -32 2 -43 8 -47 23 -4 15 -15 19 -49 20 -23 1 -47 1 -51 0 -5
-1 -11 7 -14 18 -4 15 -15 21 -47 23 -22 2 -40 7 -38 13 5 13 -26 23 -75 24
-36 1 -43 4 -43 21 0 16 -7 20 -37 21 -50 1 -85 12 -81 24 2 6 -16 11 -38 13
-30 2 -43 8 -47 21 -2 10 -10 18 -18 18 -8 1 -33 2 -56 4 -34 2 -43 6 -43 20
0 14 -10 19 -42 21 -24 2 -42 8 -40 13 4 12 -31 23 -80 24 -31 1 -38 5 -38 21
0 17 -7 20 -45 21 -67 2 -70 3 -70 19 0 10 -14 17 -45 20 -31 3 -45 10 -45 20
0 16 -3 17 -70 19 -38 1 -45 4 -45 21 0 17 -7 20 -42 21 -24 0 -52 4 -63 9
l-20 9 20 1 20 1 -20 9 c-11 5 -37 9 -57 9 -31 1 -38 5 -38 21 0 16 -7 20 -37
20 -52 0 -83 10 -83 26 0 8 -15 14 -42 16 -30 2 -43 8 -43 18 0 16 -3 17 -70
19 -38 1 -45 4 -45 21 0 17 -7 20 -42 20 -42 0 -93 19 -58 21 30 1 -25 18 -62
18 -31 1 -38 5 -38 21 0 17 -7 20 -47 21 -27 1 -52 1 -56 0 -5 -1 -11 7 -14
18 -4 15 -15 21 -47 23 -22 2 -40 8 -38 13 4 12 -31 23 -80 24 -31 1 -38 5
-38 21 0 17 -7 20 -42 21 -50 1 -81 11 -76 24 2 6 -16 11 -38 13 -30 2 -43 8
-47 21 -3 13 -16 18 -53 20 -51 2 -59 6 -59 24 0 7 -20 14 -45 17 -25 3 -44
10 -42 15 4 12 -31 23 -80 24 -31 1 -38 5 -38 21 0 17 -7 20 -45 21 -67 2 -70
3 -70 19 0 10 -13 16 -41 18 -32 2 -43 8 -47 23 -4 16 -14 19 -61 19 -49 0
-56 3 -56 19 0 16 -8 20 -40 23 -22 2 -40 8 -40 13 1 13 -34 23 -82 24 -31 1
-38 5 -38 21 0 17 -7 20 -45 21 -67 2 -70 3 -70 19 0 10 -14 17 -45 20 -31 3
-45 10 -45 20 0 16 -3 17 -70 19 -38 1 -45 4 -45 21 0 17 -7 20 -42 20 -42 0
-93 19 -58 21 30 1 -25 18 -62 18 -31 1 -38 5 -38 21 0 17 -7 20 -45 21 -67 2
-70 3 -70 19 0 10 -14 17 -45 20 -25 3 -44 10 -42 15 4 12 -31 23 -80 24 -31
1 -38 5 -38 21 0 17 -7 20 -40 20 -26 0 -42 6 -48 16 -6 11 -27 18 -60 22 -38
3 -51 9 -55 23 -4 16 -15 19 -61 19 -49 0 -56 3 -56 19 0 16 -8 20 -42 23 -28
2 -42 7 -40 16 1 7 -8 12 -20 12 -19 0 -20 -2 -8 -10 10 -6 11 -10 3 -10 -10
0 -13 -99 -13 -460 l0 -459 33 -5 c17 -3 46 -7 62 -8 17 -2 29 -7 27 -13 -4
-14 33 -23 101 -24 49 -1 57 -4 55 -18 -3 -15 6 -18 58 -21 49 -2 63 -7 67
-21 3 -13 16 -18 57 -20 57 -2 73 -7 65 -20 -6 -11 45 -21 107 -21 41 0 48 -3
46 -17 -3 -15 6 -18 58 -21 51 -2 63 -6 67 -22 4 -15 16 -20 63 -22 39 -2 58
-7 57 -15 -3 -11 35 -20 117 -25 23 -2 35 -8 35 -18 0 -11 15 -16 61 -18 49
-2 63 -7 67 -21 3 -13 16 -18 57 -20 58 -2 73 -7 65 -21 -5 -8 39 -17 115 -22
23 -2 35 -8 35 -18 0 -11 15 -16 61 -18 49 -2 63 -7 67 -21 3 -13 16 -18 57
-20 58 -2 73 -7 65 -21 -5 -8 32 -15 115 -23 22 -2 35 -9 35 -18 0 -10 16 -15
61 -17 49 -2 63 -7 67 -21 3 -13 16 -18 57 -20 58 -2 73 -7 65 -21 -5 -8 32
-15 115 -23 22 -2 35 -9 35 -18 0 -10 16 -15 61 -17 49 -2 63 -7 67 -21 3 -13
16 -18 57 -20 58 -2 73 -7 65 -21 -5 -8 32 -15 115 -23 22 -2 35 -9 35 -18 0
-10 16 -15 61 -17 52 -2 63 -6 67 -22 4 -17 14 -20 61 -20 42 0 56 -4 56 -14
0 -14 33 -22 120 -28 23 -2 35 -8 35 -18 0 -11 15 -16 61 -18 51 -2 63 -6 67
-22 4 -15 16 -20 63 -22 38 -2 58 -7 57 -15 -2 -11 40 -21 110 -25 34 -2 54
-17 25 -19 -37 -2 36 -18 85 -18 50 -1 57 -3 57 -21 0 -18 7 -20 60 -20 45 0
60 -4 60 -14 0 -16 32 -25 103 -28 26 -1 47 -5 47 -10 0 -4 -6 -8 -12 -9 -37
-2 36 -18 85 -18 49 -1 57 -4 55 -19 -3 -14 6 -17 60 -20 45 -2 62 -7 62 -17
0 -7 10 -15 22 -17 13 -2 24 -10 26 -19 2 -12 -8 -18 -40 -22 -23 -3 -44 -11
-46 -16 -2 -6 -10 -11 -18 -11 -8 0 -14 -7 -14 -15 0 -8 -5 -15 -11 -15 -15 0
-119 -104 -119 -119 0 -6 -7 -11 -15 -11 -10 0 -15 -10 -15 -30 0 -20 -5 -30
-15 -30 -13 0 -21 -31 -16 -63 0 -4 -3 -7 -9 -7 -5 0 -10 7 -10 15 0 12 -15
15 -79 15 -70 0 -79 2 -84 20 -5 18 -14 20 -81 20 -69 0 -76 2 -76 20 0 17 -8
19 -82 22 -58 2 -82 7 -81 15 3 13 -34 22 -112 25 -32 2 -49 7 -48 15 3 13
-42 21 -137 25 -34 2 -55 8 -55 15 0 19 -8 22 -84 24 -62 2 -74 5 -79 21 -4
15 -15 18 -82 18 -69 0 -78 2 -83 20 -5 18 -14 20 -80 20 -66 0 -75 2 -80 20
-4 17 -15 20 -83 22 -47 2 -78 7 -76 13 4 13 -32 23 -93 24 -64 2 -101 11 -84
22 15 9 -30 18 -116 21 -45 2 -60 7 -60 18 0 11 -13 16 -50 18 -82 4 -115 12
-115 27 0 12 -17 15 -79 15 -70 0 -79 2 -84 20 -5 18 -14 20 -80 20 -64 0 -75
3 -79 18 -5 16 -17 19 -79 21 -75 2 -93 7 -84 20 6 11 -43 21 -104 22 -52 1
-111 16 -76 19 43 3 -21 18 -96 22 -47 2 -74 8 -74 15 0 19 -8 22 -84 24 -62
2 -74 5 -79 21 -4 15 -15 18 -82 18 -67 0 -78 3 -82 18 -5 16 -17 19 -79 21
-76 2 -84 5 -84 24 0 8 -25 13 -70 15 -79 3 -99 8 -91 21 7 10 -40 21 -103 22
-25 1 -57 5 -71 9 l-25 8 25 2 c24 2 23 2 -5 10 -16 4 -63 10 -102 13 l-73 4
0 -363 0 -364 40 0 c27 0 40 -4 40 -14 0 -18 44 -26 154 -27 50 0 100 -4 111
-9 19 -8 18 -9 -5 -11 -41 -3 69 -17 150 -19 77 -1 142 -17 90 -20 -51 -4 32
-16 125 -19 110 -2 120 -4 120 -16 0 -15 50 -23 158 -24 75 -1 97 -4 97 -15 0
-18 45 -26 151 -26 72 0 89 -3 89 -15 0 -18 -10 -16 130 -24 84 -4 114 -9 112
-18 -3 -16 -11 -14 126 -22 66 -3 111 -10 110 -16 -3 -13 41 -21 137 -23 44
-2 96 -6 115 -9 33 -6 34 -7 10 -13 -21 -6 -18 -8 20 -13 25 -4 87 -8 138 -9
55 -2 91 -7 90 -13 -4 -15 46 -23 156 -24 79 -1 97 -4 93 -15 -7 -18 41 -26
156 -26 67 0 87 -3 87 -14 0 -18 45 -26 151 -26 72 0 89 -3 89 -15 0 -18 -10
-16 128 -24 66 -3 111 -10 110 -16 -3 -14 41 -21 143 -24 89 -2 171 -17 119
-21 -52 -5 32 -18 125 -20 50 -1 101 -6 115 -10 l25 -8 -24 -1 c-13 -1 -22 -4
-18 -7 3 -3 64 -9 136 -12 79 -4 130 -11 129 -17 -2 -13 42 -22 115 -24 43 -1
57 -5 57 -16 0 -8 7 -15 15 -15 8 0 15 -7 15 -15 0 -8 6 -15 14 -15 7 0 16 -9
19 -21 3 -12 10 -18 16 -14 6 3 11 -1 11 -10 0 -8 6 -18 14 -21 8 -3 18 -19
21 -35 4 -16 11 -26 16 -23 6 3 13 -3 16 -15 3 -12 10 -21 15 -21 6 0 8 -9 5
-20 -3 -11 -1 -20 4 -20 5 0 9 -7 9 -15 0 -8 -6 -15 -12 -15 -10 0 -9 -3 1 -9
9 -6 10 -11 2 -15 -14 -9 35 -56 58 -56 13 -1 12 -3 -4 -16 -16 -12 -51 -14
-190 -12 -107 2 -169 7 -167 13 5 17 -39 23 -194 24 -158 1 -217 7 -208 22 3
5 4 10 2 10 -2 1 -90 4 -196 8 -156 5 -195 9 -202 21 -7 12 -44 16 -187 20
-112 3 -177 9 -175 15 5 17 -39 23 -198 25 -85 1 -166 6 -180 10 -14 4 -20 9
-15 9 6 1 4 5 -4 10 -8 5 -89 10 -181 11 -91 0 -179 5 -196 10 -28 8 -28 8 -4
10 67 6 -46 18 -185 20 -82 1 -161 6 -175 10 -14 4 -20 9 -15 9 6 1 4 5 -4 10
-8 5 -89 10 -181 11 -91 0 -179 5 -196 10 -28 8 -28 8 -4 10 l25 2 -25 8 c-14
4 -97 9 -185 10 -88 1 -171 6 -185 10 -14 4 -20 9 -15 10 6 1 -1 6 -15 10 -14
4 -95 9 -180 10 -85 1 -166 6 -180 10 -21 7 -22 8 -5 10 19 1 19 2 -2 10 -13
5 -98 10 -191 10 -93 1 -175 6 -183 11 -8 5 -9 9 -4 10 6 0 -1 5 -15 9 -14 4
-69 8 -122 9 l-98 1 0 -420 0 -420 433 -1 c237 -1 457 -4 487 -9 l55 -7 -70
-3 c-127 -6 333 -17 805 -20 256 -1 492 -6 525 -10 l60 -7 -70 -3 c-148 -7
264 -17 751 -19 276 0 530 -4 565 -8 l64 -8 -60 -6 c-52 -5 -47 -6 45 -8 58
-2 121 -4 140 -6 19 -1 277 -3 572 -4 473 -1 538 -3 552 -17 9 -8 16 -11 16
-5 0 17 37 13 44 -4 5 -13 264 -15 2246 -15 2081 0 2241 1 2238 17 -4 21 -12
22 -198 24 -85 1 -166 5 -180 9 l-25 8 25 2 c68 6 -47 18 -190 20 -153 1 -192
7 -191 25 1 6 -78 12 -193 15 -107 3 -198 8 -202 12 -4 5 4 8 17 9 l24 1 -25
8 c-14 4 -97 9 -185 10 -88 1 -171 6 -185 10 -14 4 -20 9 -15 10 6 1 -1 6 -15
10 -14 4 -95 9 -180 10 -85 1 -166 6 -180 10 -21 7 -22 8 -5 10 l20 1 -20 9
c-11 5 -83 9 -160 10 -145 2 -188 8 -183 25 2 6 -50 12 -134 15 -133 6 -171
13 -132 26 10 3 28 10 39 15 19 8 19 9 -2 4 -12 -3 -24 -1 -28 5 -4 6 11 10
43 10 76 0 146 11 130 21 -9 6 -4 9 15 9 15 0 27 -4 27 -10 0 -5 10 -10 23 -9
21 0 21 1 2 9 -14 6 -2 9 43 9 48 1 62 4 62 16 0 13 33 15 241 15 202 0 240
-2 236 -14 -7 -16 26 -22 153 -25 86 -2 104 -6 95 -20 -7 -13 48 -21 144 -22
47 -1 97 -5 111 -9 l25 -8 -25 -2 c-48 -4 29 -16 121 -19 89 -2 171 -17 119
-21 -48 -5 75 -18 169 -19 78 -1 92 -3 87 -16 -3 -8 -1 -16 4 -16 6 -1 15 -3
20 -4 6 -1 58 -3 116 -4 86 -1 105 -4 101 -15 -7 -18 40 -26 150 -26 73 0 106
10 90 27 -4 3 -41 8 -84 12 -60 5 -78 10 -78 21 0 11 -14 16 -55 18 -94 4
-148 13 -126 22 18 6 18 7 -5 13 -13 4 -49 7 -79 8 -61 0 -93 10 -88 24 2 6
-32 11 -79 13 -75 3 -83 5 -83 22 0 18 -7 20 -80 20 -73 0 -80 2 -80 20 0 17
-8 19 -82 22 -58 2 -82 7 -81 15 3 12 -39 20 -122 25 -28 2 -40 8 -40 18 0 12
-16 16 -74 18 -74 4 -140 19 -96 22 39 4 -27 18 -86 19 -48 1 -57 4 -62 21 -4
15 -14 20 -39 21 -18 0 -42 4 -52 8 -19 7 -19 8 0 15 19 7 19 8 0 22 -11 8
-14 14 -7 14 7 0 10 4 7 9 -3 5 8 14 25 20 17 6 28 15 24 21 -5 7 34 10 122 8
79 -2 127 -7 125 -13 -4 -14 33 -23 100 -24 43 -1 60 -5 67 -18 8 -14 11 -15
11 -3 0 12 3 11 11 -2 8 -14 23 -18 69 -18 46 0 60 -3 60 -15 0 -15 30 -22
110 -28 32 -2 45 -7 45 -17 0 -11 15 -16 61 -18 52 -2 63 -6 67 -23 3 -11 9
-19 14 -18 4 1 29 1 56 0 34 -1 47 -5 47 -15 0 -14 26 -21 120 -29 22 -2 35
-9 35 -18 0 -10 16 -15 63 -17 48 -2 63 -6 59 -16 -6 -14 38 -26 94 -26 17 0
28 -6 31 -18 4 -13 17 -18 59 -20 81 -4 94 -8 94 -23 0 -10 17 -15 63 -17 44
-2 62 -7 62 -16 0 -18 23 -26 76 -26 31 0 44 -4 44 -14 0 -14 41 -26 94 -26
37 0 74 -19 41 -21 -41 -2 29 -17 86 -18 48 -1 57 -4 62 -21 3 -11 9 -20 14
-19 4 1 29 1 56 0 34 -1 47 -5 47 -15 0 -10 16 -17 48 -21 26 -3 61 -9 77 -12
26 -5 27 -7 10 -13 -16 -5 -13 -8 14 -13 19 -4 55 -7 82 -7 42 0 49 -3 49 -20
0 -18 7 -20 60 -20 l60 0 0 39 c0 40 0 40 -42 43 -30 2 -43 8 -43 18 0 11 -14
16 -57 18 -50 3 -58 6 -58 22 0 17 -7 20 -45 20 -36 0 -45 3 -45 18 0 13 -2
14 -9 4 -7 -11 -9 -11 -14 2 -4 11 -19 16 -47 16 -33 0 -40 3 -40 20 0 18 -7
20 -56 20 -47 0 -57 3 -61 19 -4 15 -15 21 -44 23 -22 2 -39 8 -39 13 1 13
-34 23 -82 24 -31 1 -38 5 -38 21 0 17 -7 20 -42 21 -49 1 -80 10 -79 24 1 6
-16 11 -38 13 -29 2 -40 8 -44 23 -4 16 -14 19 -61 19 -49 0 -56 2 -56 20 0
16 -7 20 -38 20 -25 0 -43 7 -55 20 -12 15 -29 20 -62 20 -38 0 -45 3 -45 20
0 17 -7 20 -42 21 -50 1 -81 11 -76 24 2 6 -17 12 -42 15 -31 3 -45 10 -45 20
0 11 -14 16 -57 18 -50 3 -58 6 -58 22 0 17 -7 20 -40 20 -33 0 -40 3 -40 20
0 17 -7 20 -42 20 -24 0 -50 5 -58 10 -10 6 -11 10 -2 10 6 0 12 5 12 10 0 6
-15 10 -33 10 -65 0 -57 36 10 46 25 4 40 10 33 14 -16 10 64 20 95 12 14 -4
24 -11 22 -17 -1 -5 18 -12 43 -15 25 -3 44 -9 42 -15 -4 -12 31 -23 81 -24
30 -1 37 -5 37 -21 0 -17 7 -20 40 -20 33 0 40 -3 40 -19 0 -16 8 -20 43 -23
24 -2 41 -8 40 -14 -1 -6 23 -17 54 -24 33 -7 51 -15 44 -20 -16 -9 20 -20 67
-20 26 0 32 -4 30 -18 -2 -14 5 -18 40 -20 34 -3 42 -7 42 -23 0 -16 7 -19 40
-19 27 0 40 -4 40 -14 0 -7 14 -16 31 -20 46 -9 49 -8 49 14 0 17 -7 20 -40
20 -33 0 -40 3 -40 20 0 17 -7 20 -40 20 -33 0 -40 3 -40 20 0 14 -7 20 -25
21 -46 3 -50 4 -50 19 0 9 -11 16 -27 18 -16 2 -28 10 -28 17 0 8 -15 17 -35
21 -25 4 -35 11 -35 25 0 15 -7 19 -40 19 -33 0 -40 3 -40 20 0 17 -7 20 -40
20 -33 0 -40 3 -40 19 0 16 -8 20 -37 23 -25 2 -38 8 -38 18 0 8 -11 17 -25
20 -16 4 -24 12 -22 23 2 12 -4 17 -20 17 -13 0 -30 5 -38 10 -13 8 -12 10 4
10 12 0 16 5 12 15 -4 11 2 15 23 15 17 0 31 6 35 15 9 24 97 18 104 -7 2 -10
14 -19 28 -19 45 -3 49 -4 49 -19 0 -8 10 -16 23 -18 12 -2 22 -9 22 -17 0 -8
17 -16 40 -20 30 -5 40 -11 40 -26 0 -13 7 -19 25 -20 46 -3 50 -4 50 -19 0
-8 10 -16 21 -18 12 -2 24 -12 27 -23 3 -11 9 -19 14 -18 35 6 63 -3 63 -20 0
-13 8 -21 23 -23 12 -2 21 -9 20 -15 -1 -6 15 -14 36 -18 26 -4 41 -13 44 -25
3 -12 16 -20 38 -22 22 -2 34 -8 34 -18 0 -8 10 -16 21 -18 12 -2 24 -12 27
-23 3 -11 9 -19 14 -18 4 1 20 1 36 0 20 -1 27 -6 27 -21 0 -15 7 -20 25 -20
17 0 25 -6 26 -17 0 -16 1 -15 8 1 7 19 8 19 13 -2 4 -13 14 -22 26 -22 11 0
22 -9 25 -20 4 -15 14 -20 41 -20 29 0 36 -4 36 -19 0 -13 8 -21 23 -23 12 -2
21 -9 20 -15 -1 -6 15 -14 37 -18 30 -5 40 -11 40 -25 0 -14 9 -20 38 -22 25
-2 37 -8 37 -18 0 -8 10 -16 21 -18 12 -2 24 -12 27 -23 4 -14 14 -19 41 -19
29 0 36 -4 36 -20 0 -15 7 -20 26 -20 19 0 25 -4 20 -15 -4 -10 1 -15 14 -15
18 0 20 7 20 55 0 47 -3 55 -19 55 -10 0 -21 9 -24 20 -3 11 -14 21 -26 21
-42 3 -46 4 -46 19 0 8 -10 16 -22 18 -15 2 -23 10 -23 22 0 12 -8 20 -22 22
-13 2 -23 9 -23 17 0 15 -49 34 -60 23 -3 -3 -8 4 -12 16 -3 13 -13 22 -24 22
-12 0 -19 7 -19 20 0 15 -7 20 -25 20 -18 0 -25 5 -25 20 0 11 -3 19 -7 19
-36 -6 -63 3 -63 20 0 13 -8 21 -22 23 -13 2 -23 9 -23 17 0 8 -17 19 -39 25
-21 6 -37 16 -35 21 2 6 -6 11 -18 13 -15 2 -23 10 -23 22 0 12 -8 20 -22 22
-13 2 -23 10 -23 18 0 10 -12 16 -37 18 -30 3 -38 7 -38 23 0 12 -7 19 -20 19
-13 0 -20 7 -20 19 0 13 -8 21 -22 23 -13 2 -23 10 -23 18 0 8 -7 15 -15 16
-8 1 -25 2 -37 2 -16 2 -23 8 -23 22 0 13 -7 20 -19 20 -10 0 -21 9 -24 20 -3
11 -14 21 -26 21 -42 3 -46 4 -46 19 0 8 -10 16 -22 18 -15 2 -23 10 -23 23 0
12 -7 19 -20 19 -11 0 -20 7 -20 15 0 9 -12 20 -26 25 -14 6 -22 15 -19 21 4
6 -2 13 -14 16 -22 6 -28 27 -11 38 6 4 8 10 5 15 -3 4 5 10 18 14 35 9 47 7
47 -9 0 -9 6 -15 13 -14 43 5 67 -2 67 -21 0 -13 7 -20 20 -20 13 0 20 -7 20
-19 0 -13 8 -21 23 -23 12 -2 21 -7 20 -13 -1 -5 15 -15 35 -20 21 -6 37 -17
37 -25 0 -8 10 -16 23 -18 14 -2 22 -10 22 -23 0 -12 7 -19 20 -19 13 0 20 -7
20 -20 0 -13 7 -20 20 -20 11 0 20 -7 20 -15 0 -9 9 -15 21 -15 12 0 23 -8 26
-20 3 -13 17 -22 39 -26 24 -4 34 -12 34 -25 0 -12 7 -19 20 -19 14 0 20 -7
20 -21 0 -25 33 -22 38 4 2 12 -3 17 -17 17 -14 0 -21 6 -21 20 0 13 -7 20
-20 20 -12 0 -20 7 -20 16 0 9 -9 18 -20 21 -11 3 -20 12 -20 20 0 8 -9 17
-19 20 -11 3 -21 13 -24 24 -3 11 -14 19 -26 19 -14 0 -21 6 -21 20 0 11 -7
20 -15 20 -9 0 -19 10 -24 23 -5 12 -11 21 -15 20 -15 -7 -26 -2 -26 11 0 12
-25 26 -55 30 -5 0 -10 8 -10 16 0 8 -10 20 -23 26 -13 6 -22 15 -21 20 1 5
-7 14 -18 19 -11 6 -18 16 -15 23 2 6 -2 12 -8 12 -7 0 -10 7 -6 16 4 11 -1
18 -15 21 -17 5 -20 11 -15 36 8 40 8 40 62 42 38 2 47 -1 51 -16 3 -11 14
-19 24 -19 12 0 19 -7 19 -20 0 -13 7 -20 20 -20 13 0 20 -7 20 -20 0 -13 7
-20 20 -20 13 0 20 -7 20 -20 0 -13 7 -20 20 -20 13 0 20 -7 20 -20 0 -13 7
-20 20 -20 13 0 20 -7 20 -20 0 -13 7 -20 20 -20 13 0 20 -7 20 -19 0 -11 9
-21 21 -24 12 -3 18 -10 15 -15 -6 -10 22 -39 33 -34 3 1 7 -1 7 -5 6 -31 18
-53 30 -53 13 0 18 -12 15 -32 0 -5 8 -8 18 -8 13 0 21 -8 23 -22 2 -13 9 -22
16 -20 7 1 17 -9 22 -24 6 -14 14 -22 20 -19 6 3 14 -5 20 -19 5 -14 16 -26
25 -26 8 0 15 -9 15 -20 0 -13 7 -20 20 -20 13 0 20 -7 20 -20 0 -13 7 -20 20
-20 13 0 20 -7 20 -20 0 -13 7 -20 20 -20 13 0 20 -7 20 -20 0 -13 7 -20 20
-20 13 0 20 -7 20 -20 0 -13 7 -20 20 -20 13 0 20 -7 20 -20 0 -13 7 -20 20
-20 13 0 20 -7 20 -20 0 -13 7 -20 20 -20 13 0 20 -7 20 -20 0 -13 7 -20 20
-20 13 0 20 -7 20 -20 0 -13 7 -20 20 -20 19 0 21 5 18 63 -2 45 -7 62 -17 62
-8 0 -19 18 -25 40 -7 22 -16 39 -21 37 -6 -1 -11 6 -13 18 -2 12 -11 20 -23
20 -12 0 -19 7 -19 20 0 13 -7 20 -20 20 -13 0 -20 7 -20 20 0 13 -7 20 -19
20 -15 0 -21 10 -26 41 -4 22 -9 38 -13 35 -8 -9 -33 15 -26 26 3 5 -3 12 -15
15 -12 3 -21 13 -21 24 0 12 -7 19 -20 19 -13 0 -20 7 -20 20 0 13 -7 20 -19
20 -14 0 -21 10 -26 38 -4 20 -10 31 -12 25 -5 -14 -24 -18 -22 -5 5 30 -4 55
-21 59 -11 3 -20 14 -20 24 0 12 -7 19 -20 19 -13 0 -20 7 -20 20 0 13 -7 20
-19 20 -13 0 -21 8 -23 23 -2 12 -10 22 -18 22 -8 0 -15 5 -16 10 -2 31 -18
65 -30 65 -8 0 -14 9 -14 20 0 13 -7 20 -20 20 -13 0 -20 7 -20 20 0 13 -7 20
-19 20 -13 0 -21 8 -23 23 -2 12 -9 22 -17 22 -14 0 -23 23 -22 58 0 10 -8 17
-20 17 -11 0 -20 7 -20 18 -1 9 -3 28 -4 42 -1 14 1 27 5 30 4 3 12 19 18 35
6 17 11 23 11 13 1 -12 9 -18 26 -18 18 0 25 -5 25 -20 0 -13 7 -20 20 -20 18
0 27 -26 21 -62 0 -5 8 -8 19 -8 15 0 20 -7 20 -25 0 -18 5 -25 20 -25 13 0
20 -7 20 -20 0 -13 7 -20 20 -20 15 0 20 -7 20 -25 0 -14 0 -28 1 -32 0 -5 9
-11 20 -15 10 -4 19 -17 19 -28 0 -13 7 -20 20 -20 13 0 20 -7 20 -19 0 -24
11 -32 29 -22 15 10 4 81 -12 78 -6 -1 -13 8 -15 21 -2 14 -10 22 -23 22 -17
0 -26 28 -20 63 1 5 -7 11 -18 14 -11 3 -21 15 -23 27 -2 11 -10 21 -18 21 -8
0 -15 7 -16 15 -1 8 -2 25 -2 38 -2 15 -8 22 -22 22 -17 0 -20 7 -20 40 0 33
-3 40 -20 40 -17 0 -20 7 -20 39 0 22 -3 46 -6 55 -4 11 -1 16 10 16 9 0 16 8
16 18 0 19 43 46 54 35 3 -4 6 -15 6 -25 0 -11 7 -18 19 -18 16 0 20 -8 23
-37 2 -24 8 -37 16 -35 13 2 16 -4 26 -50 4 -16 13 -28 21 -28 9 0 15 -9 15
-24 0 -15 7 -26 20 -29 11 -3 20 -9 19 -14 -1 -4 -1 -20 0 -35 1 -21 6 -28 21
-28 17 0 20 -7 20 -40 0 -33 3 -40 20 -40 17 0 20 -7 20 -40 0 -33 3 -40 20
-40 16 0 20 -7 20 -36 0 -27 5 -37 20 -41 18 -5 26 -32 21 -66 0 -4 8 -7 19
-7 15 0 20 -7 20 -25 0 -14 7 -28 16 -32 13 -5 13 -7 2 -14 -10 -7 -9 -9 5 -9
11 0 17 -8 17 -24 0 -15 7 -26 20 -29 11 -3 20 -9 19 -14 -1 -4 -1 -20 0 -35
1 -21 6 -28 21 -28 17 0 20 -7 20 -40 0 -33 3 -40 20 -40 17 0 20 -7 20 -40 0
-33 3 -40 20 -40 19 0 20 7 20 140 0 132 -1 140 -19 140 -16 0 -20 8 -23 42
-2 28 -7 42 -16 40 -15 -3 -18 7 -27 70 -3 28 -11 47 -18 45 -6 -1 -15 17 -20
40 -6 25 -16 43 -23 43 -10 0 -14 13 -14 40 0 33 -3 40 -19 40 -16 0 -20 8
-23 42 -2 28 -7 42 -16 40 -15 -3 -18 7 -27 70 -3 28 -11 47 -18 45 -6 -1 -15
17 -20 41 -6 24 -16 42 -23 42 -10 0 -14 13 -14 40 0 33 -3 40 -20 40 -17 0
-20 7 -20 40 0 31 -5 42 -19 48 -11 4 -20 10 -20 15 -1 4 -1 27 -1 51 0 35 -4
45 -20 49 -17 4 -20 14 -20 65 0 72 9 124 21 116 5 -3 9 2 9 11 0 11 5 15 15
11 8 -3 15 -1 15 5 0 6 5 7 10 4 6 -3 10 -24 10 -46 0 -37 19 -58 21 -21 1 33
18 -21 18 -61 1 -30 6 -40 20 -44 15 -4 21 -15 23 -44 2 -22 7 -39 13 -38 14
1 23 -30 24 -78 1 -36 4 -43 21 -43 17 0 20 -7 21 -45 2 -67 3 -70 19 -70 10
0 16 -13 18 -41 2 -32 8 -43 23 -47 11 -3 19 -9 18 -14 -1 -4 -1 -29 0 -55 1
-40 4 -48 20 -48 15 0 19 -10 23 -50 3 -28 8 -53 10 -56 3 -3 21 -1 39 5 26 7
28 9 12 10 -19 1 -23 7 -23 35 0 53 -11 96 -26 96 -9 0 -14 19 -16 62 -2 48
-7 63 -18 63 -10 0 -16 12 -18 35 -5 82 -14 120 -25 117 -8 -1 -13 18 -15 57
-2 47 -7 59 -22 63 -16 4 -20 16 -22 67 -2 46 -7 61 -18 61 -10 0 -16 12 -18
35 -6 87 -14 120 -28 120 -11 0 -14 16 -15 65 -2 84 -2 84 -16 93 -13 8 -16
43 -14 155 0 38 5 66 10 63 13 -8 18 11 20 83 3 71 16 115 31 106 5 -3 10 -21
10 -40 0 -45 10 -71 21 -54 13 22 18 7 20 -69 1 -40 6 -75 11 -78 4 -3 8 5 8
17 0 51 13 4 19 -68 4 -52 10 -77 18 -76 12 3 21 -43 25 -137 2 -34 8 -55 15
-55 19 0 22 -8 24 -84 2 -62 5 -74 21 -79 16 -4 18 -15 18 -83 0 -72 2 -79 20
-79 20 0 20 7 20 600 0 504 -2 600 -14 600 -19 0 -26 32 -27 140 -1 102 -8
142 -24 140 -6 0 -13 47 -16 112 -4 62 -7 118 -8 125 0 7 -8 10 -16 7 -13 -5
-15 9 -16 92 -2 111 -9 160 -24 153 -6 -2 -11 32 -13 91 -3 124 -12 192 -22
166 -6 -18 -7 -18 -13 5 -4 13 -7 61 -7 105 0 100 -8 144 -26 144 -11 0 -14
20 -14 89 0 104 -8 151 -25 151 -9 0 -13 26 -15 93 -2 84 -16 206 -19 164 0
-10 -5 -16 -10 -13 -5 3 -9 55 -10 114 -2 104 -17 204 -21 142 l-2 -25 -8 25
c-4 14 -8 64 -9 111 -1 106 -9 149 -27 149 -11 0 -14 20 -14 88 0 99 -9 164
-21 157 -14 -9 -18 11 -20 116 -3 104 -14 194 -19 139 -4 -55 -19 15 -20 95
-2 100 -12 167 -25 163 -6 -2 -12 43 -16 112 -8 140 -6 130 -24 130 -12 0 -15
18 -16 103 -1 109 -8 150 -24 145 -6 -2 -11 21 -12 52 -6 132 -16 224 -23 200
-6 -24 -6 -24 -13 9 -4 18 -7 68 -7 111 0 96 -8 140 -26 140 -11 0 -14 23 -15
105 -1 58 -3 110 -4 115 -1 6 -3 15 -4 20 0 6 -7 9 -13 8 -10 -2 -15 32 -20
131 -4 73 -10 136 -13 139 -3 3 -5 -6 -6 -19 l-1 -24 -8 25 c-4 14 -9 68 -10
120 -2 102 -9 142 -25 140 -6 0 -13 47 -16 112 -8 138 -6 128 -24 128 -12 0
-15 18 -16 98 -2 114 -6 173 -14 180 -3 3 -5 -6 -6 -19 0 -22 -1 -23 -9 -4 -5
11 -9 65 -10 120 -2 107 -9 148 -25 143 -6 -2 -12 43 -16 112 -8 140 -6 130
-24 130 -12 0 -15 17 -16 93 0 82 -15 211 -18 163 -1 -13 -4 -16 -10 -10 -6 5
-11 56 -12 114 -3 106 -14 194 -19 140 l-2 -25 -8 25 c-4 14 -8 64 -9 111 -1
106 -9 149 -27 149 -11 0 -14 20 -14 88 0 114 -8 162 -26 155 -11 -4 -14 14
-15 93 0 98 -14 215 -19 164 l-2 -25 -8 25 c-4 14 -8 51 -9 83 l-1 57 -421 0
-420 0 3 -42z m-642 -4599 c0 -32 3 -39 20 -39 17 0 20 -7 20 -40 0 -33 3 -40
20 -40 16 0 20 -7 20 -36 0 -27 5 -37 20 -41 12 -3 20 -14 21 -29 3 -45 4 -49
18 -49 8 0 19 -18 26 -40 9 -31 13 -35 17 -20 3 14 7 6 14 -25 6 -29 15 -45
24 -45 15 0 16 -4 19 -50 1 -18 7 -25 21 -25 17 0 20 -7 20 -40 0 -33 3 -40
20 -40 17 0 20 -7 20 -40 0 -33 3 -40 20 -40 17 0 20 -7 20 -40 0 -33 3 -40
20 -40 16 0 20 -7 20 -36 0 -27 5 -37 20 -41 15 -4 20 -14 21 -42 1 -20 3 -46
4 -59 1 -12 -2 -25 -7 -28 -4 -3 -6 -10 -3 -15 4 -5 -1 -9 -9 -9 -9 0 -16 -7
-16 -15 0 -8 -7 -15 -15 -15 -8 0 -15 -7 -15 -15 0 -8 -6 -15 -12 -15 -16 0
-58 -44 -58 -59 0 -6 -7 -11 -15 -11 -8 0 -15 -8 -15 -17 0 -15 -2 -16 -10 -3
-6 10 -10 11 -10 3 0 -7 -4 -13 -10 -13 -5 0 -10 7 -10 15 0 10 -7 15 -17 13
-12 -2 -19 4 -21 20 -2 14 -10 22 -22 22 -12 0 -20 8 -22 23 -2 12 -10 22 -18
22 -10 0 -16 12 -18 38 -2 28 -8 37 -21 37 -13 0 -21 10 -25 34 -4 19 -13 37
-21 40 -8 3 -15 15 -15 26 0 13 -7 20 -20 20 -15 0 -20 7 -21 28 -1 15 -1 31
0 35 1 5 -7 11 -18 14 -12 3 -21 17 -26 41 -4 23 -9 31 -14 23 -9 -15 -21 8
-21 40 0 12 -7 19 -19 19 -14 0 -20 10 -25 40 -4 25 -12 40 -20 40 -8 0 -16
10 -18 23 -2 12 -9 22 -17 22 -15 0 -20 17 -24 83 -1 23 3 46 9 50 6 4 15 22
19 40 3 17 10 32 15 32 4 0 11 12 15 27 3 15 11 31 17 34 5 3 12 25 15 47 3
23 11 40 17 39 6 -1 13 11 14 28 2 16 8 33 14 36 6 4 12 26 15 50 4 38 8 44
29 45 21 2 24 -2 24 -37z m1789 -311 c-1 -31 -1 -31 -8 -8 -5 14 -6 28 -4 33
9 15 13 6 12 -25z m-6326 -54 c21 -4 26 -9 16 -14 -9 -6 -6 -10 13 -15 21 -5
27 -14 31 -43 2 -21 2 -54 -1 -74 -4 -32 -9 -38 -36 -44 -27 -6 -28 -8 -11
-14 17 -6 14 -9 -16 -15 -48 -9 -95 -3 -91 13 1 6 -7 12 -18 12 -16 0 -20 7
-20 35 0 24 -5 35 -15 35 -8 0 -15 7 -15 16 0 10 6 14 15 10 12 -4 15 3 15 34
0 28 4 40 14 40 8 0 16 6 19 13 5 15 58 21 100 11z m-36 -380 c-3 -3 -12 -4
-19 -1 -8 3 -5 6 6 6 11 1 17 -2 13 -5z m1113 -83 c0 -43 -4 -60 -15 -65 -8
-3 -15 -12 -15 -21 0 -23 -27 -18 -34 8 -3 12 -6 38 -6 57 0 62 9 80 41 80 29
0 29 -1 29 -59z m-83 -48 c-3 -10 -5 -4 -5 12 0 17 2 24 5 18 2 -7 2 -21 0
-30z m3209 -33 c8 0 14 -10 14 -25 0 -18 5 -25 20 -25 13 0 20 -7 20 -19 0
-10 9 -21 20 -24 15 -4 20 -14 20 -37 0 -23 5 -33 20 -37 11 -3 20 -14 20 -24
0 -12 7 -19 20 -19 13 0 20 -7 20 -20 0 -11 7 -23 16 -27 13 -5 13 -7 2 -14
-10 -7 -9 -9 5 -9 11 0 17 -8 17 -25 0 -18 5 -25 20 -25 13 0 21 -7 22 -20 0
-11 1 -26 2 -32 1 -7 8 -16 16 -19 31 -12 25 -109 -7 -109 -6 0 -15 -14 -18
-31 -5 -22 -10 -28 -15 -18 -6 9 -10 6 -15 -13 -4 -15 -13 -29 -21 -32 -8 -3
-14 -12 -14 -21 0 -8 -4 -15 -10 -15 -5 0 -12 -11 -16 -25 -7 -27 -24 -34 -24
-10 0 8 -5 15 -11 15 -5 0 -7 -4 -4 -10 3 -5 2 -10 -2 -10 -5 0 -14 9 -21 20
-7 11 -19 20 -27 20 -8 0 -17 15 -21 37 -6 31 -8 34 -14 18 -7 -17 -9 -15 -17
15 -5 19 -16 35 -24 35 -8 0 -15 10 -17 23 -2 12 -10 22 -18 22 -19 0 -21 196
-2 202 9 3 14 49 17 164 3 87 6 151 8 142 3 -10 11 -18 19 -18z m-3406 -1150
c0 -11 -4 -20 -10 -20 -5 0 -10 9 -10 20 0 11 5 20 10 20 6 0 10 -9 10 -20z
m3340 -127 c0 -14 -2 -15 -9 -5 -8 14 -20 -70 -22 -152 0 -32 -2 -37 -9 -21
-8 18 -10 16 -14 -14 -3 -22 -17 -23 -23 -3 -3 12 -13 23 -22 23 -14 1 -13 2
2 6 25 7 23 68 -3 90 -11 10 -20 23 -20 29 0 7 -4 14 -9 16 -4 2 -12 13 -15
26 -7 21 -6 22 68 22 66 0 76 -2 76 -17z m-3369 -55 c3 -5 23 -11 45 -15 21
-3 43 -12 47 -20 4 -7 25 -13 46 -13 25 0 41 -5 45 -15 3 -10 19 -15 46 -15
27 0 43 -5 46 -15 4 -9 19 -15 39 -15 19 0 40 -7 49 -15 8 -8 22 -15 30 -15 9
0 16 -7 16 -15 0 -9 9 -15 25 -15 14 0 28 -6 31 -14 3 -8 19 -18 35 -21 16 -4
27 -10 24 -15 -3 -4 11 -11 30 -14 20 -4 33 -11 30 -15 -2 -5 11 -12 30 -15
19 -4 35 -11 35 -15 0 -5 12 -12 27 -16 15 -3 31 -12 35 -18 7 -12 12 -14 49
-16 11 0 18 -5 15 -10 -4 -5 8 -13 26 -16 18 -4 36 -12 39 -17 3 -5 25 -12 48
-15 l41 -6 0 -218 c0 -180 3 -220 15 -233 8 -8 15 -32 15 -55 l0 -41 -44 0
c-24 0 -46 5 -48 11 -2 6 -28 14 -58 17 -30 2 -58 9 -61 15 -4 5 -33 13 -65
17 -33 4 -52 8 -44 9 29 4 -23 20 -67 20 -31 1 -43 5 -43 16 0 11 -12 15 -45
15 -33 0 -45 4 -45 15 0 11 -12 15 -45 15 -31 0 -47 5 -51 15 -4 8 -18 15 -34
15 -16 0 -35 7 -44 15 -8 8 -28 15 -45 15 -20 0 -31 5 -31 14 0 8 -16 16 -42
19 -24 3 -44 10 -46 16 -2 6 -19 13 -38 17 -19 3 -34 10 -34 14 0 5 -13 11
-30 15 -16 4 -30 11 -30 15 0 5 -16 12 -35 16 -19 3 -33 10 -30 14 3 5 -9 12
-27 15 -17 4 -38 14 -46 21 -7 8 -20 14 -28 14 -9 0 -22 7 -30 15 -9 8 -24 15
-35 15 -10 0 -19 7 -19 15 0 8 -3 14 -7 14 -5 -1 -18 -1 -30 0 -25 1 -32 31
-8 31 8 0 15 7 15 15 0 9 7 18 15 21 8 4 15 12 15 19 0 8 8 21 18 31 9 10 17
22 17 28 1 6 6 10 12 9 6 -1 14 11 18 26 3 16 13 32 21 35 8 3 14 17 14 31 0
15 7 33 15 41 8 9 15 30 15 49 0 18 5 35 12 37 6 2 13 29 16 61 3 41 9 57 21
60 23 6 95 -4 102 -15z m572 -1618 c4 -17 14 -20 61 -20 41 0 56 -4 56 -14 0
-7 12 -16 28 -19 27 -5 27 -6 24 -71 -4 -62 -16 -84 -28 -51 -4 8 -12 15 -20
15 -8 0 -14 8 -14 18 0 14 -2 15 -10 2 -6 -10 -10 -11 -10 -2 0 6 -7 12 -15
12 -9 0 -18 7 -21 15 -4 8 -12 15 -20 15 -8 0 -14 7 -14 15 0 8 -7 15 -15 15
-8 0 -15 6 -15 14 0 8 -14 18 -32 22 -28 6 -30 8 -13 14 17 6 15 8 -12 14 -49
11 -40 26 16 26 40 0 50 -3 54 -20z m351 -616 c3 -9 6 -26 6 -39 0 -12 7 -25
15 -29 9 -3 15 -18 15 -36 0 -19 5 -30 14 -30 8 0 15 -16 19 -41 3 -23 10 -45
15 -48 5 -3 13 -21 17 -39 3 -18 11 -30 16 -26 5 3 10 -4 10 -15 2 -37 4 -42
15 -49 6 -4 15 -26 19 -49 4 -24 11 -43 16 -43 5 0 9 -9 9 -21 0 -11 -4 -17
-10 -14 -5 3 -10 -1 -10 -9 0 -11 -9 -16 -29 -16 -16 0 -31 -6 -34 -13 -11
-30 -217 -30 -217 -1 0 8 -4 14 -10 14 -13 0 -50 37 -50 50 0 6 -7 10 -15 10
-8 0 -15 6 -15 14 0 7 -9 16 -21 19 -12 3 -18 10 -14 16 3 6 -4 15 -17 20 -13
6 -19 10 -14 10 6 1 0 10 -12 22 -15 13 -21 30 -20 49 2 24 8 31 32 36 16 3
38 15 49 25 11 10 24 16 29 13 4 -3 8 2 8 10 0 9 6 16 14 16 8 0 17 12 21 27
4 19 9 23 15 14 5 -10 10 -4 15 18 3 17 13 31 21 31 8 0 14 7 14 16 0 8 7 22
15 30 8 9 15 24 15 35 0 11 7 19 18 19 14 0 15 2 2 10 -12 8 -11 10 6 10 12 0
25 -7 28 -16z m2079 -791 c-7 -2 -19 -2 -25 0 -7 3 -2 5 12 5 14 0 19 -2 13
-5z m-206 -9 c-3 -3 -12 -4 -19 -1 -8 3 -5 6 6 6 11 1 17 -2 13 -5z"/>
<path d="M9681 10203 c1 -21 5 -49 9 -63 7 -21 8 -22 10 -5 2 17 3 16 10 -5 4
-14 8 -100 9 -191 1 -91 6 -178 11 -195 8 -28 8 -28 10 -4 6 64 19 -79 20
-220 1 -85 6 -166 10 -180 l8 -25 2 25 2 25 8 -28 c5 -15 9 -103 10 -195 0
-93 5 -181 10 -198 8 -28 8 -28 10 -4 l2 25 8 -25 c4 -14 9 -104 10 -200 1
-96 5 -184 10 -195 l9 -20 1 20 c2 17 3 16 10 -5 4 -14 8 -102 9 -197 1 -153
3 -173 18 -182 16 -8 19 -34 24 -208 4 -109 7 -199 8 -201 1 -2 5 -1 10 2 14
9 21 -49 22 -203 1 -124 11 -230 19 -196 8 37 18 -64 20 -195 1 -85 6 -166 10
-180 4 -14 9 -20 9 -15 1 6 6 3 11 -5 5 -8 10 -91 11 -185 0 -93 5 -181 9
-195 4 -14 9 -20 10 -15 1 6 6 -1 10 -15 4 -14 9 -97 10 -185 1 -88 6 -171 10
-185 4 -14 9 -20 10 -15 1 6 6 -1 10 -15 4 -14 9 -97 10 -185 1 -88 6 -171 10
-185 l8 -25 2 25 2 25 8 -25 c4 -14 8 -99 9 -190 1 -91 6 -181 11 -200 7 -30
8 -31 10 -10 l2 25 8 -25 c4 -14 9 -104 10 -200 1 -96 6 -186 10 -200 8 -25 8
-25 9 -2 1 13 6 20 11 17 7 -4 10 872 10 2619 l0 2626 -280 0 -280 0 1 -37z"/>
<path d="M0 9280 c0 -633 0 -640 20 -640 13 0 20 -7 20 -20 0 -13 7 -20 20
-20 13 0 20 -7 20 -20 0 -13 7 -20 20 -20 11 0 20 -7 20 -15 0 -9 11 -20 25
-25 14 -5 24 -15 23 -21 -3 -11 3 -13 50 -22 9 -2 17 -10 17 -18 0 -8 10 -15
23 -17 14 -2 22 -10 22 -23 0 -12 7 -19 20 -19 13 0 20 -7 20 -20 0 -13 7 -20
19 -20 10 0 21 -9 24 -20 3 -12 14 -20 26 -20 12 0 21 -6 21 -15 0 -8 14 -17
35 -21 25 -4 35 -11 35 -25 0 -12 7 -19 20 -19 13 0 20 -7 20 -20 0 -13 7 -20
20 -20 11 0 20 -7 20 -15 0 -9 11 -20 25 -25 14 -5 24 -15 23 -21 -3 -11 3
-13 50 -22 9 -2 17 -10 17 -18 0 -8 10 -15 23 -17 14 -2 22 -10 22 -23 0 -12
7 -19 20 -19 13 0 20 -7 20 -20 0 -13 7 -20 19 -20 10 0 21 -9 24 -20 3 -12
14 -20 26 -20 13 0 21 -7 22 -17 0 -16 1 -15 8 1 7 19 8 19 13 -2 4 -14 14
-22 27 -22 14 0 21 -6 21 -20 0 -13 7 -20 20 -20 13 0 20 -7 20 -20 0 -13 7
-20 19 -20 10 0 21 -9 24 -20 3 -12 14 -20 26 -20 14 0 21 -6 21 -18 0 -10 6
-19 13 -20 35 -3 52 -10 52 -23 0 -8 10 -15 23 -17 14 -2 22 -10 22 -23 0 -12
7 -19 20 -19 13 0 20 -7 20 -20 0 -13 7 -20 19 -20 10 0 21 -9 24 -20 3 -11 9
-20 14 -19 21 4 33 -2 33 -16 0 -8 14 -17 35 -21 25 -4 35 -11 35 -25 0 -12 7
-19 20 -19 13 0 20 -7 20 -20 0 -13 7 -20 20 -20 11 0 20 -7 20 -15 0 -9 11
-20 25 -25 14 -5 24 -15 23 -22 -3 -12 3 -14 43 -17 12 0 23 -10 26 -21 3 -11
14 -20 24 -20 12 0 19 -7 19 -20 0 -13 7 -20 20 -20 13 0 20 -7 20 -20 0 -13
7 -20 19 -20 10 0 21 -8 23 -18 3 -10 11 -19 19 -20 37 -3 54 -10 54 -23 0 -8
10 -15 23 -17 14 -2 22 -10 22 -23 0 -12 7 -19 20 -19 13 0 20 -7 20 -20 0
-13 7 -20 20 -20 11 0 20 -7 20 -15 0 -9 12 -20 26 -25 14 -6 22 -14 19 -20
-3 -5 12 -12 35 -16 30 -5 40 -11 40 -25 0 -12 7 -19 20 -19 13 0 20 -7 20
-20 0 -13 7 -20 20 -20 13 0 20 -7 20 -19 0 -13 8 -21 23 -23 12 -2 22 -9 22
-17 0 -8 7 -15 15 -16 36 -6 45 -11 52 -27 4 -10 17 -18 28 -18 13 0 20 -7 20
-20 0 -13 7 -20 20 -20 13 0 20 -7 20 -20 0 -13 7 -20 19 -20 10 0 21 -9 24
-20 3 -12 14 -20 26 -20 12 0 21 -6 21 -15 0 -8 14 -17 35 -21 25 -4 35 -11
35 -25 0 -12 7 -19 20 -19 13 0 20 -7 20 -20 0 -13 7 -20 20 -20 13 0 20 -7
20 -20 0 -13 7 -20 19 -20 10 0 21 -8 23 -18 3 -10 11 -19 19 -20 37 -3 54
-10 54 -23 0 -8 10 -15 23 -17 14 -2 22 -10 22 -23 0 -12 7 -19 20 -19 13 0
20 -7 20 -20 0 -13 7 -20 19 -20 10 0 21 -9 24 -20 3 -11 9 -20 14 -19 21 4
33 -2 33 -16 0 -8 14 -17 35 -21 24 -4 35 -12 35 -24 0 -13 7 -17 25 -16 21 1
25 6 25 34 0 22 5 32 15 32 10 0 15 10 16 28 0 15 4 36 9 47 l9 20 2 -20 c1
-11 5 1 8 28 3 26 11 47 16 47 6 0 12 21 15 47 3 28 10 47 16 46 7 -1 15 20
19 50 6 41 9 48 15 32 7 -17 9 -14 9 13 1 21 6 32 15 32 8 0 17 14 21 30 4 17
13 30 21 30 8 0 14 6 14 14 0 8 14 17 30 21 17 4 30 13 30 21 0 8 7 14 15 14
17 0 18 14 5 45 -5 12 -9 14 -9 6 -1 -11 -5 -9 -15 5 -8 10 -20 19 -28 19 -7
0 -13 7 -13 15 0 8 -10 16 -22 18 -15 2 -23 10 -23 23 0 12 -7 19 -20 19 -13
0 -20 7 -20 20 0 13 -7 20 -20 20 -13 0 -20 7 -20 20 0 13 -7 20 -20 20 -13 0
-20 7 -20 20 0 13 -7 20 -20 20 -13 0 -20 7 -20 20 0 13 -7 20 -20 20 -13 0
-20 7 -20 20 0 13 -7 20 -20 20 -13 0 -20 7 -20 20 0 13 -7 20 -20 20 -13 0
-20 7 -20 20 0 13 -7 20 -20 20 -13 0 -20 7 -20 20 0 13 -7 20 -20 20 -13 0
-20 7 -20 20 0 13 -7 20 -20 20 -13 0 -20 7 -20 20 0 13 -7 20 -20 20 -12 0
-20 7 -20 16 0 9 -9 18 -20 21 -11 3 -20 12 -20 19 0 8 -11 19 -25 24 -14 5
-24 15 -23 22 2 7 -3 13 -9 14 -7 1 -17 2 -23 3 -5 0 -10 10 -10 21 0 11 -3
19 -8 19 -20 -3 -32 2 -32 15 0 8 -9 18 -20 21 -11 3 -20 12 -20 20 0 7 -9 15
-20 18 -11 3 -20 13 -21 24 0 16 -1 16 -9 -2 -7 -17 -9 -18 -9 -2 -1 10 -12
22 -26 27 -14 5 -25 16 -25 25 0 8 -9 15 -20 15 -13 0 -20 7 -20 20 0 13 -7
20 -20 20 -13 0 -20 7 -20 20 0 13 -7 20 -20 20 -13 0 -20 7 -20 20 0 13 -7
20 -20 20 -13 0 -20 7 -20 20 0 13 -7 20 -20 20 -13 0 -20 7 -20 20 0 13 -7
20 -20 20 -13 0 -20 7 -20 20 0 13 -7 20 -20 20 -13 0 -20 7 -20 20 0 13 -7
20 -20 20 -13 0 -20 7 -20 20 0 13 -7 20 -20 20 -13 0 -20 7 -20 20 0 13 -7
20 -20 20 -13 0 -20 7 -20 20 0 13 -7 20 -20 20 -13 0 -20 7 -20 20 0 13 -7
20 -20 20 -11 0 -20 7 -20 15 0 9 -11 20 -25 25 -14 5 -24 15 -23 22 2 7 -2
12 -9 13 -15 0 -28 14 -28 28 0 7 -5 12 -12 12 -15 0 -28 13 -28 28 0 7 -9 11
-18 9 -12 -2 -21 4 -24 16 -4 18 -27 31 -58 36 -5 0 -10 6 -10 13 0 15 -13 28
-28 28 -7 0 -12 5 -12 10 0 20 -16 34 -30 28 -10 -3 -15 2 -15 16 0 14 -6 21
-20 21 -13 0 -20 7 -20 20 0 13 -7 20 -20 20 -13 0 -20 7 -20 20 0 13 -7 20
-20 20 -13 0 -20 7 -20 20 0 13 -7 20 -20 20 -13 0 -20 7 -20 20 0 13 -7 20
-20 20 -13 0 -20 7 -20 20 0 13 -7 20 -20 20 -13 0 -20 7 -20 20 0 13 -7 20
-20 20 -13 0 -20 7 -20 20 0 13 -7 20 -20 20 -13 0 -20 7 -20 20 0 13 -7 20
-20 20 -13 0 -20 7 -20 20 0 13 -7 20 -20 20 -13 0 -20 7 -20 20 0 13 -7 20
-20 20 -11 0 -20 7 -20 15 0 9 -11 20 -25 25 -14 5 -24 15 -23 22 2 7 -3 12
-10 10 -7 -1 -17 9 -22 23 -5 14 -15 24 -21 23 -7 -2 -18 7 -24 20 -7 13 -15
23 -19 23 -20 -2 -26 1 -26 14 0 8 -7 15 -15 15 -9 0 -20 10 -25 23 -5 12 -9
16 -9 8 -1 -11 -5 -9 -15 5 -8 10 -20 19 -28 19 -7 0 -13 5 -13 10 0 18 -16
35 -26 29 -6 -3 -13 3 -16 15 -3 12 -13 21 -24 21 -12 0 -19 7 -19 20 0 13 -7
20 -20 20 -13 0 -20 7 -20 20 0 13 -7 20 -20 20 -13 0 -20 7 -20 20 0 13 -7
20 -20 20 -13 0 -20 7 -20 20 0 13 -7 20 -20 20 -13 0 -20 7 -20 20 0 13 -7
20 -20 20 -13 0 -20 7 -20 20 0 13 -7 20 -20 20 -13 0 -20 7 -20 20 0 13 -7
20 -20 20 -13 0 -20 7 -20 20 0 13 -7 20 -20 20 -13 0 -20 7 -20 20 0 13 -7
20 -19 20 -10 0 -21 9 -24 20 -3 11 -12 20 -20 20 -8 0 -17 9 -20 20 -3 11
-12 20 -20 20 -8 0 -17 9 -20 21 -3 12 -10 18 -15 15 -11 -7 -35 18 -26 27 4
4 -5 11 -20 17 -15 5 -24 14 -21 20 3 5 -1 10 -9 10 -9 0 -21 9 -28 20 -7 11
-19 20 -26 20 -7 0 -17 10 -22 23 -8 20 -9 20 -10 2 0 -18 -2 -17 -13 5 -7 14
-19 25 -27 25 -8 0 -15 7 -15 15 0 8 -10 16 -22 18 -15 2 -23 10 -23 23 0 12
-7 19 -20 19 -20 0 -20 -7 -20 -640z"/>
<path d="M8556 6803 c-15 -4 -16 -7 -5 -14 10 -6 4 -9 -18 -10 -18 -1 -37 -3
-43 -4 -5 -1 -25 -3 -42 -4 -27 -2 -29 -4 -14 -10 18 -7 18 -8 -5 -14 -13 -4
-37 -7 -52 -7 -16 0 -26 -4 -23 -9 6 -10 -39 -21 -93 -22 -27 0 -31 -2 -17 -8
18 -7 18 -8 -5 -14 -13 -4 -34 -7 -46 -7 -16 0 -25 -8 -29 -25 -8 -31 1 -56
18 -53 9 2 15 -13 18 -42 3 -31 10 -45 20 -45 16 0 17 -3 19 -70 1 -38 4 -45
21 -45 17 0 20 -7 21 -45 2 -67 3 -70 19 -70 10 0 16 -13 18 -41 2 -32 8 -43
23 -47 11 -3 19 -9 18 -14 -1 -4 -1 -29 0 -54 1 -38 5 -48 21 -52 17 -4 20
-14 20 -61 0 -43 3 -56 15 -56 8 0 16 -10 17 -22 0 -13 2 -27 3 -33 2 -5 4
-14 5 -20 1 -5 2 -13 1 -17 0 -5 6 -8 14 -8 9 0 18 -6 21 -14 3 -8 19 -18 35
-21 16 -4 29 -13 29 -21 0 -8 7 -14 15 -14 8 0 15 -7 15 -15 0 -10 10 -15 30
-15 20 0 30 -5 30 -15 0 -8 7 -15 15 -15 8 0 15 -7 15 -15 0 -8 6 -15 14 -15
7 0 16 -9 19 -21 3 -12 10 -18 16 -15 5 3 12 -8 16 -25 5 -22 10 -28 15 -18 6
9 11 5 15 -14 4 -15 13 -27 21 -27 8 0 14 -9 14 -20 0 -11 7 -20 15 -20 9 0
15 -9 15 -25 0 -16 6 -25 15 -25 9 0 15 -9 15 -25 0 -15 5 -24 13 -22 8 1 13
-13 15 -40 2 -29 8 -43 18 -43 9 0 14 -11 14 -35 0 -23 5 -35 14 -35 8 0 15
-16 19 -41 3 -23 11 -45 17 -49 6 -4 14 -26 17 -48 3 -23 9 -39 14 -36 4 2 11
-19 15 -48 5 -38 9 -47 15 -33 5 15 9 6 14 -32 4 -29 12 -51 18 -50 12 2 14
-5 16 -55 1 -25 4 -29 11 -18 7 12 11 8 16 -17 9 -43 24 -42 24 1 0 18 3 49 7
67 7 33 7 33 14 9 4 -14 7 67 6 180 -1 202 -1 203 -7 60 l-5 -145 -7 130 c-5
72 -8 158 -8 192 0 51 -3 61 -15 57 -8 -4 -13 -10 -10 -14 5 -9 -42 -20 -50
-12 -3 3 -5 15 -5 28 0 13 -8 24 -20 27 -17 4 -20 14 -20 57 0 43 -3 53 -20
57 -17 5 -20 14 -20 64 0 52 -2 59 -20 59 -17 0 -20 7 -20 40 0 36 -2 40 -25
40 -14 0 -25 5 -25 11 0 6 -7 17 -15 25 -8 9 -15 24 -15 35 0 10 -7 19 -15 19
-10 0 -15 11 -16 33 0 26 -2 28 -9 12 -6 -17 -9 -14 -15 17 -4 21 -12 36 -19
35 -6 -1 -12 10 -14 26 -2 15 -9 27 -18 27 -9 0 -14 11 -14 30 0 18 -6 33 -15
36 -9 4 -15 19 -15 35 0 18 -5 29 -14 29 -8 0 -15 16 -19 41 -3 23 -11 46 -19
50 -9 6 -14 53 -16 181 -4 180 4 235 33 224 8 -3 17 -1 20 4 4 6 -3 10 -14 10
-18 0 -21 6 -22 43 -1 48 -10 79 -24 77 -6 -1 -12 9 -15 21 -6 25 -15 29 -44
22z m51 -395 c-2 -24 -4 -5 -4 42 0 47 2 66 4 43 2 -24 2 -62 0 -85z"/>
<path d="M8832 6718 c-1 -40 -6 -68 -13 -68 -5 0 -7 -4 -4 -10 3 -5 0 -10 -8
-10 -8 0 -17 -9 -20 -20 -3 -11 -9 -19 -14 -18 -5 2 -18 -6 -29 -17 -18 -17
-20 -27 -14 -65 4 -25 8 -36 9 -25 2 34 21 -4 22 -45 0 -27 2 -30 8 -16 7 18
8 18 14 2 4 -10 8 -32 8 -49 1 -18 3 -24 6 -14 9 33 23 16 23 -28 0 -25 5 -45
11 -45 5 0 7 5 4 10 -3 6 -1 10 4 10 6 0 11 -20 11 -46 0 -37 3 -45 15 -40 13
4 15 -10 15 -94 0 -84 2 -98 15 -94 12 5 15 -2 16 -30 1 -20 3 -40 4 -46 1 -5
4 -20 5 -32 5 -50 19 61 19 157 1 65 -4 109 -12 126 -8 14 -17 50 -20 79 -4
30 -11 56 -17 58 -15 5 -13 123 3 120 6 -2 12 3 11 10 -1 6 -2 21 -2 32 -1 11
-9 20 -17 20 -10 0 -15 11 -16 33 0 27 -2 29 -9 12 -11 -27 -11 -26 -20 100
-5 90 -7 98 -8 43z"/>
<path d="M8982 6690 c0 -19 2 -27 5 -17 2 9 2 25 0 35 -3 9 -5 1 -5 -18z"/>
<path d="M9014 6560 c0 -52 1 -74 3 -47 2 26 2 68 0 95 -2 26 -3 4 -3 -48z"/>
<path d="M8702 6565 c0 -16 2 -22 5 -12 2 9 2 23 0 30 -3 6 -5 -1 -5 -18z"/>
<path d="M8921 6484 c0 -11 3 -14 6 -6 3 7 2 16 -1 19 -3 4 -6 -2 -5 -13z"/>
<path d="M5333 6263 c15 -2 37 -2 50 0 12 2 0 4 -28 4 -27 0 -38 -2 -22 -4z"/>
<path d="M5093 6233 c15 -2 37 -2 50 0 12 2 0 4 -28 4 -27 0 -38 -2 -22 -4z"/>
<path d="M4933 6203 c15 -2 37 -2 50 0 12 2 0 4 -28 4 -27 0 -38 -2 -22 -4z"/>
<path d="M7033 5790 c0 -36 2 -50 4 -32 2 17 2 47 0 65 -2 17 -4 3 -4 -33z"/>
<path d="M6784 5585 c0 -115 2 -161 3 -102 2 59 2 154 0 210 -1 56 -3 8 -3
-108z"/>
<path d="M9262 5420 c0 -19 2 -27 5 -17 2 9 2 25 0 35 -3 9 -5 1 -5 -18z"/>
<path d="M6911 4844 c0 -11 3 -14 6 -6 3 7 2 16 -1 19 -3 4 -6 -2 -5 -13z"/>
<path d="M6881 4714 c0 -11 3 -14 6 -6 3 7 2 16 -1 19 -3 4 -6 -2 -5 -13z"/>
<path d="M4700 4475 c0 -8 -7 -15 -15 -15 -8 0 -15 -7 -15 -15 0 -8 -7 -15
-15 -15 -8 0 -15 -7 -15 -15 0 -11 12 -15 44 -15 71 0 76 -4 76 -71 0 -46 -3
-59 -15 -59 -8 0 -15 -7 -15 -15 0 -10 -11 -15 -35 -15 -24 0 -35 5 -35 15 0
8 -7 15 -15 15 -11 0 -15 11 -16 38 0 30 -2 33 -9 17 -11 -27 -12 -118 -1
-111 5 3 12 -10 15 -29 4 -21 13 -35 21 -35 8 0 15 -7 15 -15 0 -8 7 -15 15
-15 8 0 15 -6 15 -14 0 -15 29 -25 75 -27 26 0 27 -2 10 -9 -18 -8 -17 -9 8
-9 16 -1 26 3 23 8 -3 5 10 12 30 16 40 7 104 62 104 89 0 9 4 15 9 11 6 -3
13 11 17 30 8 46 0 145 -13 153 -6 4 -14 18 -18 31 -9 30 -36 61 -52 61 -7 0
-13 7 -13 15 0 12 -17 15 -90 15 -73 0 -90 -3 -90 -15z"/>
<path d="M5040 3775 c0 -25 0 -25 103 -26 56 0 111 -4 122 -9 15 -6 16 -9 5
-11 -8 -1 25 -5 74 -8 57 -4 91 -11 94 -19 2 -7 20 -12 40 -12 53 0 87 -11 70
-21 -8 -6 0 -9 24 -9 42 0 70 -9 63 -20 -2 -4 14 -10 37 -13 22 -3 44 -11 49
-18 4 -7 18 -14 30 -16 13 -2 27 -10 32 -18 4 -8 19 -15 31 -15 13 0 26 -7 30
-15 3 -8 12 -15 21 -15 8 0 15 -7 15 -15 0 -8 3 -14 8 -14 27 5 52 -3 52 -16
0 -8 7 -15 15 -15 8 0 15 -7 15 -15 0 -8 7 -15 15 -15 8 0 15 -6 15 -14 0 -8
14 -18 31 -21 20 -5 27 -10 19 -15 -8 -5 -5 -9 9 -13 24 -6 31 0 31 29 0 17
-8 24 -31 29 -22 5 -28 10 -18 15 9 6 6 10 -13 15 -15 4 -29 13 -32 21 -3 8
-13 14 -21 14 -9 0 -13 5 -10 11 4 6 -2 13 -14 16 -12 3 -21 10 -21 17 0 6 -5
4 -10 -4 -8 -13 -10 -12 -10 3 0 10 -8 17 -20 17 -11 0 -20 7 -20 15 0 10 -10
15 -30 15 -20 0 -30 5 -30 15 0 10 -10 15 -30 15 -20 0 -30 5 -30 15 0 10 -10
15 -30 15 -20 0 -30 5 -30 15 0 10 -10 15 -34 15 -19 0 -41 7 -49 15 -8 8 -34
15 -57 17 -23 1 -44 8 -47 15 -3 7 -18 13 -33 13 -15 0 -49 3 -76 7 -35 4 -43
8 -29 13 11 4 -44 10 -122 14 -79 5 -143 12 -143 17 0 5 -13 9 -30 9 -25 0
-30 -4 -30 -25z"/>
<path d="M4950 3605 c0 -11 11 -15 36 -15 19 0 33 -4 30 -9 -8 -12 28 -21 82
-21 25 0 41 -4 37 -10 -3 -5 16 -12 44 -16 29 -4 49 -11 48 -18 -1 -6 13 -12
31 -14 20 -2 32 -9 32 -18 0 -9 11 -14 30 -14 20 0 30 -5 30 -15 0 -10 10 -15
30 -15 20 0 30 -5 30 -15 0 -8 7 -15 15 -15 9 0 18 -7 21 -15 4 -8 12 -15 20
-15 8 0 22 -9 31 -19 9 -11 21 -18 25 -14 5 3 12 -4 15 -16 3 -11 10 -18 15
-15 5 3 12 -3 15 -15 3 -11 10 -18 15 -15 5 3 12 -3 15 -15 3 -12 12 -21 19
-21 8 0 14 -7 14 -15 0 -8 7 -15 15 -15 8 0 15 -7 15 -15 0 -8 6 -15 14 -15 7
0 16 -9 19 -21 3 -12 10 -18 16 -14 9 5 13 -12 10 -42 0 -4 9 -11 21 -15 12
-4 18 -12 15 -18 -3 -5 1 -10 9 -10 24 0 22 60 -1 61 -15 0 -15 2 2 9 17 7 17
9 3 9 -10 1 -18 8 -18 16 0 9 -7 18 -15 21 -8 4 -15 12 -15 20 0 8 -7 14 -15
14 -8 0 -15 7 -15 15 0 8 -7 15 -15 15 -8 0 -15 7 -15 15 0 8 -7 15 -15 15 -8
0 -15 7 -15 15 0 8 -7 15 -15 15 -8 0 -15 7 -15 15 0 8 -7 15 -15 15 -9 0 -18
7 -21 15 -4 8 -12 15 -20 15 -8 0 -14 7 -14 15 0 8 -7 15 -15 15 -8 0 -15 6
-15 14 0 8 -13 17 -30 21 -16 4 -30 10 -30 15 0 5 -14 12 -31 15 -20 5 -27 10
-19 15 8 5 3 10 -15 14 -15 4 -34 14 -42 21 -8 8 -23 15 -34 15 -10 0 -19 6
-19 13 0 9 -2 9 -9 -1 -7 -11 -9 -11 -14 2 -4 10 -18 16 -37 16 -20 0 -30 5
-30 15 0 11 -12 15 -45 15 -31 0 -47 5 -51 15 -5 11 -23 15 -75 15 -55 0 -69
-3 -69 -15z"/>
<path d="M9290 2250 c0 -5 5 -10 10 -10 6 0 10 5 10 10 0 6 -4 10 -10 10 -5 0
-10 -4 -10 -10z"/>
<path d="M5672 1640 c0 -19 2 -27 5 -17 2 9 2 25 0 35 -3 9 -5 1 -5 -18z"/>
<path d="M5644 1290 c0 -63 1 -89 3 -57 2 31 2 83 0 115 -2 31 -3 5 -3 -58z"/>
<path d="M10200 1285 c0 -38 3 -45 20 -45 17 0 20 7 20 45 0 38 -3 45 -20 45
-17 0 -20 -7 -20 -45z"/>
<path d="M9838 1148 c-8 -22 7 -63 22 -63 22 0 20 69 -1 73 -9 2 -19 -3 -21
-10z"/>
<path d="M9880 1060 c0 -13 7 -20 20 -20 13 0 20 7 20 20 0 13 -7 20 -20 20
-13 0 -20 -7 -20 -20z"/>
<path d="M9925 1030 c-8 -12 5 -60 16 -60 5 0 9 16 9 35 0 33 -12 46 -25 25z"/>
<path d="M9962 943 c5 -25 28 -28 28 -4 0 12 -6 21 -16 21 -9 0 -14 -7 -12
-17z"/>
<path d="M5672 850 c0 -14 2 -19 5 -12 2 6 2 18 0 25 -3 6 -5 1 -5 -13z"/>
<path d="M10050 820 c0 -5 5 -10 10 -10 6 0 10 5 10 10 0 6 -4 10 -10 10 -5 0
-10 -4 -10 -10z"/>
<path d="M9722 703 c2 -10 10 -18 18 -18 22 0 18 29 -3 33 -14 3 -18 -1 -15
-15z"/>
<path d="M9770 660 c0 -5 5 -10 10 -10 6 0 10 5 10 10 0 6 -4 10 -10 10 -5 0
-10 -4 -10 -10z"/>
<path d="M9446 464 c-6 -15 54 -28 67 -15 5 5 6 14 2 20 -8 14 -63 10 -69 -5z"/>
<path d="M9560 420 c0 -5 7 -10 15 -10 8 0 15 5 15 10 0 6 -7 10 -15 10 -8 0
-15 -4 -15 -10z"/>
<path d="M7256 378 c3 -4 11 -5 19 -1 21 7 19 12 -4 10 -11 0 -18 -5 -15 -9z"/>
<path d="M9200 146 c0 -31 152 -33 158 -2 3 14 -8 16 -77 16 -64 0 -81 -3 -81
-14z"/>
<path d="M9473 113 c-47 -6 -41 -23 7 -23 29 0 40 4 40 15 0 8 -3 14 -7 13 -5
0 -23 -3 -40 -5z"/>
</g>
</svg>
